<svg id="svg" xmlns="http://www.w3.org/2000/svg" xmlns:xlink="http://www.w3.org/1999/xlink" width="400" height="403.3613445378151" viewBox="0, 0, 400,403.3613445378151"><g id="svgg"><path id="path0" d="M176.050 4.661 C 11.378 26.434,-57.078 226.247,60.018 343.344 C 177.551 460.877,377.926 391.519,398.786 226.082 C 414.826 98.866,303.156 -12.144,176.050 4.661 M216.087 39.536 C 346.319 52.710,409.801 203.561,327.996 305.462 C 247.640 405.559,86.380 376.499,45.876 254.622 C 8.533 142.257,99.182 27.710,216.087 39.536 M186.555 143.090 C 186.555 205.145,186.731 215.844,187.776 217.336 C 189.564 219.889,257.145 281.933,258.137 281.933 C 258.600 281.933,263.496 277.017,269.018 271.008 L 279.057 260.084 270.411 251.954 C 265.656 247.482,251.366 234.235,238.655 222.516 L 215.546 201.208 215.331 135.898 L 215.116 70.588 200.835 70.588 L 186.555 70.588 186.555 143.090 " stroke="none" fill="#000000" fill-rule="evenodd"></path></g></svg>