<svg id="svg" xmlns="http://www.w3.org/2000/svg" xmlns:xlink="http://www.w3.org/1999/xlink" width="400" height="400" viewBox="0, 0, 400,400"><g id="svgg"><path id="path0" d="M41.111 41.527 C 30.415 43.874,22.030 51.349,18.271 61.887 C 16.037 68.149,16.037 331.851,18.271 338.113 C 22.171 349.047,31.223 356.711,42.704 358.800 C 51.915 360.476,348.085 360.476,357.296 358.800 C 368.777 356.711,377.829 349.047,381.729 338.113 C 383.963 331.851,383.963 68.149,381.729 61.887 C 377.829 50.953,368.777 43.289,357.296 41.200 C 347.432 39.405,49.376 39.714,41.111 41.527 M346.226 72.266 C 352.486 74.646,352.152 67.439,352.152 200.000 C 352.152 332.561,352.486 325.354,346.226 327.734 C 341.999 329.341,58.001 329.341,53.774 327.734 C 47.514 325.354,47.848 332.561,47.848 200.000 C 47.848 68.240,47.567 74.668,53.434 72.322 C 57.264 70.791,342.202 70.736,346.226 72.266 M64.444 200.000 L 64.444 311.667 148.409 311.375 L 232.374 311.083 232.103 303.597 L 231.831 296.111 268.138 295.818 L 304.444 295.525 304.444 303.596 L 304.444 311.667 320.000 311.667 L 335.556 311.667 335.556 200.000 L 335.556 88.333 200.000 88.333 L 64.444 88.333 64.444 200.000 M210.870 146.370 C 215.614 148.576,221.937 156.018,223.332 161.038 C 230.612 187.245,195.094 204.106,180.146 181.538 C 166.399 160.785,188.199 135.831,210.870 146.370 M145.580 178.906 C 157.984 187.739,151.637 207.778,136.435 207.778 C 129.558 207.778,124.289 204.814,121.785 199.537 C 114.432 184.041,131.729 169.044,145.580 178.906 M271.089 177.502 C 282.043 183.005,283.036 199.216,272.806 205.538 C 261.342 212.623,246.594 203.498,248.087 190.244 C 249.377 178.803,260.935 172.400,271.089 177.502 M219.963 218.933 C 223.915 220.247,230.040 222.782,233.574 224.566 L 240.000 227.810 240.000 242.238 L 240.000 256.667 200.000 256.667 L 160.000 256.667 160.000 242.238 L 160.000 227.810 166.389 224.592 C 184.754 215.343,203.285 213.385,219.963 218.933 M141.944 229.589 C 144.359 230.236,144.444 230.709,144.444 243.463 L 144.444 256.667 123.840 256.667 L 103.236 256.667 103.562 248.676 L 103.889 240.685 110.000 236.989 C 120.634 230.558,134.002 227.461,141.944 229.589 M280.556 232.397 C 284.222 233.895,289.347 236.474,291.944 238.130 L 296.667 241.139 296.667 248.903 L 296.667 256.667 276.111 256.667 L 255.556 256.667 255.556 243.415 C 255.556 228.156,255.035 228.815,266.667 229.345 C 271.108 229.548,276.456 230.723,280.556 232.397 " stroke="none" fill="#000000" fill-rule="evenodd"></path></g></svg>