<?xml version="1.0" standalone="no"?>
<!DOCTYPE svg PUBLIC "-//W3C//DTD SVG 20010904//EN"
 "http://www.w3.org/TR/2001/REC-SVG-20010904/DTD/svg10.dtd">
<svg version="1.0" xmlns="http://www.w3.org/2000/svg"
 width="746.000000pt" height="792.000000pt" viewBox="0 0 746.000000 792.000000"
 preserveAspectRatio="xMidYMid meet">
<metadata>
Created by potrace 1.16, written by Peter Selinger 2001-2019
</metadata>
<g transform="translate(0.000000,792.000000) scale(0.100000,-0.100000)"
fill="#000000" stroke="none">
<path d="M2759 7184 c-162 -15 -402 -54 -548 -90 -140 -34 -396 -111 -434
-131 l-30 -15 23 -18 c13 -10 55 -35 94 -56 85 -46 142 -87 217 -159 56 -54
110 -138 96 -151 -3 -4 -28 -1 -54 7 -65 18 -243 16 -314 -4 -81 -22 -171 -60
-234 -98 -250 -151 -495 -424 -712 -794 -101 -172 -102 -180 -18 -149 132 48
465 117 483 100 3 -4 -24 -37 -60 -74 -168 -171 -275 -408 -309 -685 -19 -156
-2 -464 36 -642 31 -147 45 -202 77 -305 45 -143 57 -179 85 -250 13 -36 36
-94 50 -130 38 -99 89 -208 184 -395 130 -255 212 -396 224 -384 2 3 0 43 -5
90 -5 46 -10 167 -10 269 0 289 36 569 95 747 26 77 45 112 45 82 0 -23 87
-234 133 -323 46 -90 41 -93 81 52 29 103 82 227 136 315 19 32 40 66 45 75
32 54 172 224 229 277 46 44 173 153 214 184 24 18 41 36 38 38 -3 3 -50 21
-106 39 -248 84 -340 177 -340 344 0 117 78 354 153 465 135 198 254 252 537
242 80 -2 184 -1 232 4 172 17 357 103 458 213 129 139 156 163 214 185 93 35
216 23 336 -31 160 -73 666 -29 848 74 17 10 48 27 68 38 67 38 143 99 127
101 -5 1 -43 0 -85 -1 -48 -1 -78 2 -78 8 0 6 24 33 53 61 61 60 53 63 -69 31
-42 -12 -79 -19 -82 -16 -6 6 0 20 33 71 45 72 59 105 49 114 -5 5 -44 -3 -94
-20 -121 -40 -116 -42 -124 49 -11 128 -68 263 -139 330 l-24 23 -6 -78 c-5
-80 -27 -165 -49 -196 -13 -17 -48 -15 -48 3 0 29 -264 252 -372 314 -377 217
-826 300 -1349 250z"/>
<path d="M5045 5900 c-83 -9 -244 -36 -400 -66 -126 -24 -367 -25 -454 -1 -86
23 -234 47 -295 47 -126 0 -262 -123 -360 -328 -17 -37 -39 -82 -47 -101 l-16
-35 -17 30 c-10 16 -34 40 -54 54 -36 24 -41 25 -217 24 -211 -1 -397 -18
-475 -44 -209 -70 -352 -255 -352 -456 0 -51 5 -81 20 -111 42 -81 150 -148
257 -159 72 -7 121 5 165 43 67 56 13 133 -98 140 -81 6 -100 11 -122 33 -31
31 -26 98 13 183 64 139 144 187 323 195 166 7 301 -32 387 -112 71 -66 62
-135 -35 -286 -122 -190 -153 -357 -145 -779 7 -384 37 -567 130 -806 97 -248
248 -414 502 -550 179 -95 321 -225 401 -365 56 -98 104 -275 104 -382 0 -146
45 -345 119 -532 45 -112 108 -250 131 -286 5 -8 41 -79 79 -157 108 -220 127
-237 178 -161 59 88 125 46 197 -122 21 -49 41 -90 45 -90 7 0 16 18 75 152
29 68 66 108 98 108 16 0 41 -18 72 -51 26 -27 53 -49 59 -46 7 2 19 19 29 38
9 19 28 59 43 89 14 30 40 79 58 107 84 138 167 266 221 343 72 102 96 177 96
297 0 101 -16 117 -22 23 -4 -51 -14 -87 -36 -133 -55 -111 -110 -125 -346
-88 -66 11 -154 25 -194 30 -140 21 -173 49 -295 243 -217 347 -271 804 -145
1233 101 345 323 711 617 1017 101 106 190 178 255 207 112 50 141 61 218 80
117 29 207 41 322 41 111 0 172 14 191 44 11 18 22 112 28 245 2 38 -1 40 -91
77 -50 20 -121 94 -173 180 -46 74 -56 104 -35 104 8 0 18 -4 21 -10 8 -13
558 -14 553 -1 -4 13 -159 181 -243 263 -113 112 -263 168 -452 168 l-63 0 0
79 c0 145 -22 165 -185 168 -60 1 -113 2 -116 3 -3 0 -14 18 -24 40 -25 55
-74 96 -137 115 -65 19 -255 27 -363 15z m97 -388 c114 -74 141 -83 172 -53
13 12 31 40 41 62 23 50 35 50 35 -2 0 -62 -28 -157 -65 -225 -54 -97 -51 -96
-157 -16 -173 129 -296 177 -440 170 -48 -2 -88 -2 -88 1 0 17 175 104 245
122 17 5 60 7 97 5 64 -3 73 -7 160 -64z m-48 -1205 c-4 -6 -31 -43 -59 -82
-50 -67 -85 -120 -152 -230 -17 -27 -55 -99 -85 -160 l-53 -110 -3 50 c-5 72
33 224 79 315 42 84 112 158 191 202 49 27 93 35 82 15z"/>
<path d="M6615 4766 c-116 -28 -160 -85 -160 -206 0 -83 16 -121 85 -215 47
-63 163 -165 189 -165 16 0 15 572 -1 588 -15 15 -47 14 -113 -2z"/>
<path d="M2741 4183 c-131 -132 -217 -270 -281 -456 -61 -177 -81 -316 -81
-567 0 -203 17 -350 62 -565 24 -109 76 -301 89 -325 9 -16 18 14 45 160 23
127 56 250 73 278 31 49 77 18 170 -117 34 -50 62 -95 62 -100 0 -5 4 -11 9
-13 8 -3 151 -216 151 -225 0 -2 19 -32 41 -66 171 -256 411 -693 455 -826 23
-71 28 -63 91 146 76 254 102 379 108 536 2 49 6 91 8 94 3 2 51 -34 106 -81
117 -99 141 -114 141 -91 0 29 -39 172 -72 263 -53 148 -82 182 -243 288 -374
246 -471 335 -580 533 -95 171 -179 422 -212 635 -14 83 -18 170 -18 349 0
223 -1 237 -18 237 -10 0 -58 -39 -106 -87z"/>
<path d="M5994 4256 c-22 -7 -66 -32 -97 -56 -67 -50 -64 -15 -42 -385 8 -137
15 -260 15 -273 0 -31 16 -20 41 30 35 69 68 193 109 407 18 97 35 160 46 172
25 28 75 24 156 -12 65 -28 76 -30 139 -24 92 9 111 -3 139 -91 11 -36 20 -80
21 -98 0 -17 4 -40 9 -51 7 -18 10 -16 23 16 47 107 49 224 5 281 -14 18 -50
47 -79 63 l-54 30 -195 2 c-139 2 -207 -1 -236 -11z"/>
</g>
</svg>
