<svg id="svg" version="1.1" xmlns="http://www.w3.org/2000/svg" xmlns:xlink="http://www.w3.org/1999/xlink" width="400" height="384.98293515358364" viewBox="0, 0, 400,384.98293515358364"><g id="svgg"><path id="path0" d="M187.873 35.852 C 186.920 36.037,183.888 36.361,181.136 36.571 C 178.383 36.781,175.871 37.056,175.553 37.183 C 174.840 37.468,168.022 38.770,163.619 39.462 C 160.386 39.969,158.742 40.450,146.295 44.529 C 139.668 46.701,139.346 46.830,133.897 49.494 C 132.054 50.394,129.888 51.347,129.084 51.611 C 127.240 52.217,124.881 53.413,123.388 54.500 C 122.753 54.963,120.254 56.346,117.835 57.574 C 113.467 59.792,109.431 62.331,105.612 65.265 C 104.517 66.107,102.723 67.401,101.626 68.142 C 100.529 68.884,98.793 70.183,97.769 71.030 C 96.745 71.877,94.738 73.523,93.309 74.687 C 89.811 77.537,82.195 84.894,80.704 86.865 C 80.041 87.740,77.940 90.197,76.035 92.326 C 74.129 94.454,71.530 97.602,70.260 99.321 C 68.989 101.040,67.275 103.331,66.449 104.412 C 65.623 105.494,64.103 107.780,63.070 109.493 C 62.037 111.207,60.512 113.648,59.681 114.918 C 57.969 117.534,54.919 123.286,54.475 124.735 C 54.312 125.265,53.408 127.344,52.464 129.355 C 50.198 134.187,44.108 152.494,43.308 156.882 C 42.960 158.787,42.454 161.473,42.182 162.849 C 40.439 171.677,40.136 174.113,39.644 183.253 C 39.106 193.262,39.898 207.311,41.381 214.052 C 41.683 215.428,42.049 217.421,42.192 218.479 C 42.336 219.538,42.607 220.815,42.794 221.316 C 42.981 221.818,43.299 223.393,43.501 224.817 C 43.990 228.265,50.377 247.306,52.494 251.627 C 53.417 253.511,54.309 255.486,54.475 256.015 C 55.260 258.511,57.494 262.764,60.136 266.795 C 61.732 269.230,63.346 271.829,63.724 272.570 C 64.101 273.311,65.120 274.800,65.987 275.879 C 67.554 277.826,68.594 279.224,72.069 284.051 C 73.063 285.433,75.067 287.789,76.522 289.288 C 77.976 290.786,80.172 293.270,81.401 294.807 C 83.701 297.683,88.840 302.731,91.262 304.492 C 92.014 305.039,93.920 306.642,95.497 308.054 C 98.437 310.688,101.326 312.874,103.369 314.009 C 104.004 314.362,105.303 315.307,106.256 316.109 C 108.896 318.329,112.933 320.878,117.572 323.254 C 119.878 324.435,122.793 326.065,124.048 326.876 C 125.303 327.687,126.968 328.556,127.747 328.805 C 129.489 329.364,131.582 330.295,136.086 332.514 C 137.995 333.454,141.983 335.011,144.947 335.973 C 147.911 336.936,152.676 338.489,155.534 339.425 C 158.393 340.361,162.078 341.299,163.725 341.510 C 165.371 341.721,167.104 342.039,167.575 342.218 C 168.046 342.396,169.557 342.671,170.934 342.830 C 172.310 342.988,173.869 343.284,174.398 343.488 C 175.621 343.958,184.795 344.850,194.168 345.410 C 206.305 346.135,224.141 344.741,234.823 342.231 C 235.765 342.010,237.809 341.667,239.365 341.470 C 241.934 341.144,245.346 340.125,258.710 335.691 C 261.145 334.884,265.520 333.084,268.431 331.693 C 271.343 330.301,273.905 329.163,274.125 329.163 C 274.678 329.163,277.251 327.835,280.479 325.885 C 281.970 324.984,284.656 323.511,286.446 322.612 C 289.643 321.007,294.927 317.587,296.824 315.896 C 297.353 315.424,299.342 314.014,301.244 312.764 C 303.145 311.514,306.090 309.183,307.788 307.584 C 309.486 305.985,311.655 304.089,312.608 303.370 C 315.409 301.257,323.297 293.391,325.543 290.472 C 326.683 288.989,328.317 286.910,329.175 285.852 C 333.683 280.284,337.912 274.539,339.374 271.992 C 339.982 270.934,341.551 268.422,342.859 266.410 C 345.232 262.761,347.663 258.224,348.220 256.400 C 348.382 255.871,349.336 253.705,350.340 251.588 C 352.602 246.819,358.607 228.926,359.368 224.690 C 359.677 222.968,360.194 220.090,360.516 218.295 C 360.838 216.500,361.212 214.767,361.346 214.445 C 361.599 213.836,362.481 207.009,363.038 201.347 C 363.448 197.174,363.449 184.114,363.040 179.596 C 362.580 174.506,361.650 167.528,361.169 165.544 C 360.687 163.555,360.128 160.667,359.530 157.074 C 358.908 153.342,352.364 133.501,350.514 129.740 C 349.628 127.940,348.698 125.834,348.447 125.059 C 346.694 119.654,335.663 102.643,328.179 93.803 C 326.896 92.288,325.555 90.622,325.198 90.101 C 324.055 88.433,315.008 79.398,312.905 77.826 C 311.789 76.991,309.391 74.947,307.576 73.284 C 304.593 70.550,301.697 68.368,292.649 62.038 C 291.028 60.904,288.316 59.283,286.622 58.435 C 284.928 57.588,281.981 55.968,280.074 54.837 C 278.166 53.705,275.113 52.177,273.289 51.442 C 271.465 50.707,268.435 49.337,266.555 48.398 C 264.675 47.460,261.752 46.237,260.058 45.681 C 258.364 45.125,253.773 43.613,249.856 42.322 C 245.900 41.018,241.193 39.743,239.269 39.455 C 235.545 38.897,232.670 38.365,228.648 37.490 C 227.254 37.187,223.962 36.767,221.333 36.559 C 218.705 36.350,215.688 36.018,214.629 35.822 C 212.211 35.373,190.209 35.398,187.873 35.852 M236.832 94.891 C 237.749 95.628,239.247 96.797,240.162 97.490 C 241.077 98.182,243.070 99.791,244.590 101.065 C 246.110 102.339,248.306 104.116,249.471 105.013 C 250.635 105.911,252.653 107.554,253.955 108.664 C 263.841 117.098,267.357 119.583,268.858 119.195 C 270.128 118.866,276.820 113.686,283.942 107.517 C 285.953 105.775,287.985 104.145,288.458 103.894 C 288.930 103.643,290.570 102.383,292.102 101.093 C 300.286 94.205,301.475 93.376,302.702 93.696 C 303.502 93.904,308.372 99.113,309.839 101.331 C 310.198 101.872,311.227 103.217,312.127 104.320 C 314.565 107.307,313.511 109.977,308.688 113.034 C 307.909 113.528,305.830 115.202,304.068 116.753 C 302.307 118.304,300.361 119.891,299.744 120.280 C 299.127 120.668,297.851 121.697,296.908 122.566 C 295.965 123.436,294.455 124.669,293.553 125.307 C 292.651 125.946,290.982 127.198,289.845 128.091 C 288.707 128.983,287.300 130.079,286.718 130.526 C 284.381 132.319,286.034 135.375,291.242 138.892 C 292.089 139.463,293.734 140.725,294.899 141.695 C 296.064 142.664,297.475 143.742,298.035 144.089 C 298.595 144.436,300.044 145.633,301.254 146.750 C 302.465 147.867,304.173 149.293,305.048 149.920 C 313.002 155.615,313.650 157.111,310.095 161.569 C 308.943 163.014,307.088 165.367,305.973 166.797 C 301.879 172.049,301.172 172.304,297.982 169.682 C 296.887 168.782,294.979 167.267,293.741 166.314 C 292.504 165.361,290.482 163.753,289.249 162.740 C 288.016 161.728,286.105 160.168,285.003 159.275 C 282.528 157.270,279.202 154.527,275.548 151.478 C 268.536 145.627,267.949 145.610,261.598 151.065 C 260.327 152.157,258.595 153.558,257.748 154.181 C 256.901 154.803,254.786 156.531,253.048 158.022 C 248.988 161.503,245.577 164.279,243.561 165.741 C 242.683 166.378,240.760 167.894,239.290 169.109 C 235.047 172.615,234.547 172.352,227.743 163.041 C 227.124 162.194,226.043 160.851,225.340 160.057 C 223.397 157.861,223.588 156.989,226.675 153.969 C 228.112 152.563,229.975 150.978,230.814 150.447 C 231.652 149.917,233.465 148.462,234.841 147.213 C 236.218 145.965,237.950 144.518,238.691 143.998 C 239.432 143.478,241.019 142.266,242.217 141.305 C 243.416 140.344,245.087 139.061,245.932 138.454 C 252.944 133.417,252.694 132.185,243.311 125.502 C 242.146 124.673,240.414 123.278,239.461 122.403 C 238.508 121.528,237.074 120.390,236.273 119.874 C 235.473 119.358,233.574 117.795,232.054 116.400 C 230.534 115.005,228.677 113.472,227.927 112.994 C 222.887 109.776,221.896 107.363,224.387 104.375 C 225.161 103.446,226.594 101.627,227.572 100.332 C 232.681 93.570,234.130 92.718,236.832 94.891 M106.001 97.498 C 109.640 100.453,112.168 102.454,115.120 104.716 C 116.364 105.669,118.733 107.621,120.385 109.054 C 125.983 113.912,132.146 118.747,134.537 120.157 L 135.897 120.960 137.535 119.942 C 140.105 118.345,141.688 117.164,144.161 115.000 C 145.422 113.896,147.155 112.488,148.011 111.871 C 148.867 111.253,150.693 109.716,152.069 108.454 C 153.446 107.193,155.241 105.734,156.059 105.213 C 156.878 104.692,158.263 103.610,159.139 102.808 C 160.015 102.005,161.443 100.851,162.312 100.241 C 163.181 99.632,164.965 98.224,166.278 97.113 C 170.148 93.834,170.476 94.030,179.019 104.716 C 182.312 108.835,182.006 110.195,176.966 113.832 C 175.871 114.622,173.621 116.451,171.965 117.896 C 170.309 119.342,168.317 120.930,167.538 121.425 C 166.759 121.920,165.775 122.713,165.351 123.186 C 164.652 123.968,159.208 128.263,156.181 130.421 C 154.193 131.838,152.783 133.580,152.913 134.460 C 153.066 135.498,159.242 140.877,164.953 144.947 C 165.845 145.582,167.858 147.238,169.427 148.627 C 170.997 150.016,173.154 151.779,174.221 152.546 C 176.843 154.431,180.173 158.009,180.173 158.941 C 180.173 159.359,179.437 160.604,178.537 161.710 C 177.637 162.815,176.650 164.086,176.342 164.535 C 176.035 164.984,174.909 166.424,173.840 167.734 C 172.771 169.045,171.577 170.571,171.187 171.126 C 169.205 173.945,168.751 173.745,158.965 165.736 C 157.671 164.678,155.783 163.205,154.769 162.464 C 153.756 161.723,151.651 159.984,150.092 158.599 C 148.533 157.215,146.564 155.586,145.717 154.980 C 144.870 154.373,143.571 153.312,142.830 152.620 C 141.438 151.322,136.394 147.834,135.909 147.834 C 135.352 147.834,130.998 150.846,129.041 152.584 C 127.931 153.569,126.552 154.671,125.976 155.033 C 125.399 155.394,123.542 156.920,121.848 158.424 C 120.154 159.928,118.162 161.572,117.421 162.076 C 116.679 162.581,114.947 163.964,113.571 165.151 C 112.194 166.338,110.597 167.605,110.021 167.968 C 109.444 168.331,108.083 169.417,106.996 170.383 C 102.777 174.130,102.943 174.219,94.889 163.882 C 91.992 160.165,91.627 159.608,91.627 158.908 C 91.627 157.994,95.713 153.674,98.189 151.971 C 99.187 151.284,101.395 149.509,103.095 148.027 C 104.795 146.545,107.594 144.293,109.316 143.022 C 119.294 135.657,120.340 134.009,116.717 131.364 C 114.656 129.860,111.215 127.153,108.533 124.928 C 107.258 123.869,105.314 122.348,104.214 121.548 C 103.114 120.748,101.001 119.008,99.519 117.682 C 98.037 116.356,96.218 114.862,95.476 114.362 C 90.504 111.005,89.431 108.589,91.750 105.968 C 92.453 105.174,93.529 103.831,94.141 102.984 C 95.366 101.290,100.053 95.835,100.670 95.386 C 101.722 94.620,103.160 95.190,106.001 97.498 M208.792 226.179 C 210.452 226.497,213.491 226.756,215.545 226.756 C 217.599 226.756,220.240 227.006,221.413 227.312 C 222.586 227.618,224.485 227.989,225.632 228.137 C 226.780 228.285,228.129 228.558,228.631 228.744 C 229.133 228.930,230.714 229.248,232.145 229.451 C 237.942 230.273,254.475 236.769,259.439 240.176 C 259.991 240.554,261.482 241.440,262.753 242.143 C 264.849 243.304,266.647 244.582,272.355 248.970 C 273.402 249.775,274.845 250.803,275.563 251.256 C 277.431 252.433,286.618 261.494,287.729 263.255 C 288.244 264.071,289.378 265.561,290.248 266.566 C 292.471 269.135,293.145 270.541,292.661 271.602 C 292.265 272.471,287.162 276.031,284.092 277.579 C 283.154 278.051,281.434 279.015,280.269 279.719 C 276.568 281.958,275.284 281.718,273.173 278.393 C 271.431 275.651,265.414 269.735,261.232 266.653 C 254.160 261.443,253.585 261.046,251.588 260.000 C 250.529 259.446,248.970 258.518,248.123 257.939 C 243.998 255.120,232.768 250.940,224.447 249.125 C 214.477 246.952,215.285 247.029,202.310 247.014 C 189.588 246.999,188.601 247.085,180.751 248.901 C 179.480 249.194,177.834 249.546,177.093 249.682 C 172.577 250.512,159.538 255.550,156.674 257.572 C 156.136 257.952,154.663 258.827,153.401 259.518 C 145.570 263.802,134.637 272.999,130.996 278.367 C 127.467 283.567,124.683 284.172,120.610 280.624 C 119.096 279.306,115.468 276.825,113.162 275.531 C 110.497 274.035,109.904 273.029,110.643 271.260 C 112.660 266.432,123.381 254.988,131.056 249.471 C 132.676 248.306,134.942 246.613,136.092 245.707 C 146.025 237.885,164.969 230.051,179.018 227.955 C 180.395 227.750,182.300 227.404,183.253 227.186 C 184.206 226.968,186.718 226.774,188.835 226.755 C 190.953 226.736,193.811 226.489,195.188 226.207 C 198.636 225.499,205.169 225.486,208.792 226.179 " stroke="none" fill="#fcfcfc" fill-rule="evenodd"></path><path id="path1" d="M193.840 9.638 C 187.264 10.002,175.656 11.056,175.212 11.330 C 175.034 11.440,173.262 11.707,171.275 11.924 C 169.287 12.140,166.535 12.572,165.159 12.884 C 163.782 13.196,160.577 13.904,158.037 14.458 C 150.667 16.064,149.261 16.454,140.520 19.317 C 118.822 26.423,92.862 40.521,80.108 52.126 C 78.503 53.586,75.457 56.249,73.340 58.042 C 57.331 71.603,41.094 93.061,31.973 112.710 C 30.327 116.254,28.454 120.279,27.810 121.655 C 25.931 125.672,20.613 140.768,19.674 144.755 C 19.201 146.766,18.481 149.711,18.075 151.299 C 16.622 156.988,16.169 159.266,16.169 160.893 C 16.169 161.802,15.911 163.543,15.595 164.762 C 14.991 167.093,14.573 171.439,13.808 183.349 C 13.225 192.425,14.215 210.663,15.576 215.914 C 15.902 217.174,16.169 219.015,16.169 220.004 C 16.169 221.724,17.211 226.929,18.291 230.606 C 18.571 231.559,19.182 233.985,19.650 235.996 C 20.459 239.483,21.790 243.934,22.642 246.006 C 22.860 246.535,23.672 248.701,24.447 250.818 C 26.362 256.048,27.033 257.651,29.931 263.908 C 31.304 266.872,32.942 270.423,33.571 271.800 C 35.049 275.036,44.172 290.149,46.512 293.238 C 54.824 304.214,57.132 306.991,62.547 312.537 C 65.928 316.000,70.432 320.331,72.557 322.161 C 74.681 323.992,77.774 326.747,79.429 328.283 C 81.084 329.819,84.289 332.376,86.551 333.964 C 88.813 335.553,92.310 338.013,94.321 339.431 C 100.029 343.456,112.337 350.207,120.693 353.896 C 122.387 354.644,125.419 355.992,127.430 356.891 C 132.285 359.062,146.955 363.959,152.262 365.181 C 156.650 366.191,159.120 366.752,164.900 368.052 C 166.770 368.472,168.762 368.814,169.328 368.811 C 169.893 368.808,172.608 369.150,175.361 369.571 C 189.689 371.760,212.475 371.918,225.602 369.918 C 226.978 369.709,229.490 369.361,231.184 369.146 C 234.394 368.739,237.897 368.071,243.118 366.868 C 244.812 366.478,248.142 365.711,250.518 365.164 C 272.109 360.189,303.443 344.812,320.348 330.895 C 323.285 328.477,332.273 320.561,333.975 318.892 C 346.917 306.204,355.054 296.015,363.471 281.958 C 366.199 277.401,368.431 273.618,368.431 273.552 C 368.431 273.487,369.276 271.636,370.308 269.440 C 371.341 267.244,372.917 263.888,373.811 261.983 C 375.600 258.171,377.233 254.048,379.802 246.858 C 380.732 244.257,381.594 241.964,381.718 241.763 C 381.842 241.563,382.186 240.313,382.482 238.986 C 382.779 237.659,383.791 233.455,384.733 229.644 C 385.675 225.833,386.559 221.467,386.699 219.942 C 386.839 218.417,387.122 216.598,387.328 215.900 C 387.535 215.201,387.866 212.551,388.066 210.010 C 388.265 207.469,388.603 203.831,388.817 201.925 C 389.316 197.485,389.321 183.710,388.825 179.211 C 388.615 177.305,388.285 173.629,388.092 171.042 C 387.899 168.455,387.628 166.155,387.490 165.932 C 387.352 165.708,386.993 163.580,386.693 161.203 C 386.393 158.826,385.810 155.496,385.397 153.802 C 382.190 140.638,381.783 139.255,378.652 130.895 C 377.661 128.248,376.658 125.563,376.424 124.928 C 376.189 124.293,374.988 121.636,373.754 119.025 C 372.521 116.414,371.511 114.225,371.511 114.160 C 371.511 113.393,366.788 104.465,363.292 98.626 C 359.481 92.259,357.569 89.428,352.861 83.187 C 347.202 75.684,335.491 63.041,329.740 58.226 C 328.046 56.808,325.621 54.659,324.350 53.451 C 321.572 50.809,320.465 49.959,312.026 43.990 C 292.969 30.512,267.652 19.412,244.658 14.452 C 242.117 13.904,238.999 13.211,237.729 12.913 C 236.458 12.614,234.293 12.260,232.916 12.127 C 231.540 11.993,229.115 11.641,227.526 11.344 C 220.616 10.051,202.749 9.146,193.840 9.638 M214.629 35.822 C 215.688 36.018,218.705 36.350,221.333 36.559 C 223.962 36.767,227.254 37.187,228.648 37.490 C 232.670 38.365,235.545 38.897,239.269 39.455 C 241.193 39.743,245.900 41.018,249.856 42.322 C 253.773 43.613,258.364 45.125,260.058 45.681 C 261.752 46.237,264.675 47.460,266.555 48.398 C 268.435 49.337,271.465 50.707,273.289 51.442 C 275.113 52.177,278.166 53.705,280.074 54.837 C 281.981 55.968,284.928 57.588,286.622 58.435 C 288.316 59.283,291.028 60.904,292.649 62.038 C 301.697 68.368,304.593 70.550,307.576 73.284 C 309.391 74.947,311.789 76.991,312.905 77.826 C 315.008 79.398,324.055 88.433,325.198 90.101 C 325.555 90.622,326.896 92.288,328.179 93.803 C 335.663 102.643,346.694 119.654,348.447 125.059 C 348.698 125.834,349.628 127.940,350.514 129.740 C 352.364 133.501,358.908 153.342,359.530 157.074 C 360.128 160.667,360.687 163.555,361.169 165.544 C 361.650 167.528,362.580 174.506,363.040 179.596 C 363.449 184.114,363.448 197.174,363.038 201.347 C 362.481 207.009,361.599 213.836,361.346 214.445 C 361.212 214.767,360.838 216.500,360.516 218.295 C 360.194 220.090,359.677 222.968,359.368 224.690 C 358.607 228.926,352.602 246.819,350.340 251.588 C 349.336 253.705,348.382 255.871,348.220 256.400 C 347.663 258.224,345.232 262.761,342.859 266.410 C 341.551 268.422,339.982 270.934,339.374 271.992 C 337.912 274.539,333.683 280.284,329.175 285.852 C 328.317 286.910,326.683 288.989,325.543 290.472 C 323.297 293.391,315.409 301.257,312.608 303.370 C 311.655 304.089,309.486 305.985,307.788 307.584 C 306.090 309.183,303.145 311.514,301.244 312.764 C 299.342 314.014,297.353 315.424,296.824 315.896 C 294.927 317.587,289.643 321.007,286.446 322.612 C 284.656 323.511,281.970 324.984,280.479 325.885 C 277.251 327.835,274.678 329.163,274.125 329.163 C 273.905 329.163,271.343 330.301,268.431 331.693 C 265.520 333.084,261.145 334.884,258.710 335.691 C 245.346 340.125,241.934 341.144,239.365 341.470 C 237.809 341.667,235.765 342.010,234.823 342.231 C 224.141 344.741,206.305 346.135,194.168 345.410 C 184.795 344.850,175.621 343.958,174.398 343.488 C 173.869 343.284,172.310 342.988,170.934 342.830 C 169.557 342.671,168.046 342.396,167.575 342.218 C 167.104 342.039,165.371 341.721,163.725 341.510 C 162.078 341.299,158.393 340.361,155.534 339.425 C 152.676 338.489,147.911 336.936,144.947 335.973 C 141.983 335.011,137.995 333.454,136.086 332.514 C 131.582 330.295,129.489 329.364,127.747 328.805 C 126.968 328.556,125.303 327.687,124.048 326.876 C 122.793 326.065,119.878 324.435,117.572 323.254 C 112.933 320.878,108.896 318.329,106.256 316.109 C 105.303 315.307,104.004 314.362,103.369 314.009 C 101.326 312.874,98.437 310.688,95.497 308.054 C 93.920 306.642,92.014 305.039,91.262 304.492 C 88.840 302.731,83.701 297.683,81.401 294.807 C 80.172 293.270,77.976 290.786,76.522 289.288 C 75.067 287.789,73.063 285.433,72.069 284.051 C 68.594 279.224,67.554 277.826,65.987 275.879 C 65.120 274.800,64.101 273.311,63.724 272.570 C 63.346 271.829,61.732 269.230,60.136 266.795 C 57.494 262.764,55.260 258.511,54.475 256.015 C 54.309 255.486,53.417 253.511,52.494 251.627 C 50.377 247.306,43.990 228.265,43.501 224.817 C 43.299 223.393,42.981 221.818,42.794 221.316 C 42.607 220.815,42.336 219.538,42.192 218.479 C 42.049 217.421,41.683 215.428,41.381 214.052 C 39.898 207.311,39.106 193.262,39.644 183.253 C 40.136 174.113,40.439 171.677,42.182 162.849 C 42.454 161.473,42.960 158.787,43.308 156.882 C 44.108 152.494,50.198 134.187,52.464 129.355 C 53.408 127.344,54.312 125.265,54.475 124.735 C 54.919 123.286,57.969 117.534,59.681 114.918 C 60.512 113.648,62.037 111.207,63.070 109.493 C 64.103 107.780,65.623 105.494,66.449 104.412 C 67.275 103.331,68.989 101.040,70.260 99.321 C 71.530 97.602,74.129 94.454,76.035 92.326 C 77.940 90.197,80.041 87.740,80.704 86.865 C 82.195 84.894,89.811 77.537,93.309 74.687 C 94.738 73.523,96.745 71.877,97.769 71.030 C 98.793 70.183,100.529 68.884,101.626 68.142 C 102.723 67.401,104.517 66.107,105.612 65.265 C 109.431 62.331,113.467 59.792,117.835 57.574 C 120.254 56.346,122.753 54.963,123.388 54.500 C 124.881 53.413,127.240 52.217,129.084 51.611 C 129.888 51.347,132.054 50.394,133.897 49.494 C 139.346 46.830,139.668 46.701,146.295 44.529 C 158.742 40.450,160.386 39.969,163.619 39.462 C 168.022 38.770,174.840 37.468,175.553 37.183 C 175.871 37.056,178.383 36.781,181.136 36.571 C 183.888 36.361,186.920 36.037,187.873 35.852 C 190.209 35.398,212.211 35.373,214.629 35.822 M231.437 95.765 C 230.289 96.983,228.550 99.038,227.572 100.332 C 226.594 101.627,225.161 103.446,224.387 104.375 C 222.213 106.984,222.264 107.851,224.735 110.306 C 225.741 111.306,227.178 112.515,227.927 112.994 C 228.677 113.472,230.534 115.005,232.054 116.400 C 233.574 117.795,235.473 119.358,236.273 119.874 C 237.074 120.390,238.508 121.528,239.461 122.403 C 240.414 123.278,242.146 124.673,243.311 125.502 C 252.694 132.185,252.944 133.417,245.932 138.454 C 245.087 139.061,243.416 140.344,242.217 141.305 C 241.019 142.266,239.432 143.478,238.691 143.998 C 237.950 144.518,236.218 145.965,234.841 147.213 C 233.465 148.462,231.652 149.917,230.814 150.447 C 229.975 150.978,228.112 152.563,226.675 153.969 C 223.588 156.989,223.397 157.861,225.340 160.057 C 226.043 160.851,227.124 162.194,227.743 163.041 C 234.547 172.352,235.047 172.615,239.290 169.109 C 240.760 167.894,242.683 166.378,243.561 165.741 C 245.577 164.279,248.988 161.503,253.048 158.022 C 254.786 156.531,256.901 154.803,257.748 154.181 C 258.595 153.558,260.327 152.157,261.598 151.065 C 267.949 145.610,268.536 145.627,275.548 151.478 C 279.202 154.527,282.528 157.270,285.003 159.275 C 286.105 160.168,288.016 161.728,289.249 162.740 C 290.482 163.753,292.504 165.361,293.741 166.314 C 294.979 167.267,296.887 168.782,297.982 169.682 C 301.172 172.304,301.879 172.049,305.973 166.797 C 307.088 165.367,308.943 163.014,310.095 161.569 C 313.650 157.111,313.002 155.615,305.048 149.920 C 304.173 149.293,302.465 147.867,301.254 146.750 C 300.044 145.633,298.595 144.436,298.035 144.089 C 297.475 143.742,296.064 142.664,294.899 141.695 C 293.734 140.725,292.089 139.463,291.242 138.892 C 286.034 135.375,284.381 132.319,286.718 130.526 C 287.300 130.079,288.707 128.983,289.845 128.091 C 290.982 127.198,292.651 125.946,293.553 125.307 C 294.455 124.669,295.965 123.436,296.908 122.566 C 297.851 121.697,299.127 120.668,299.744 120.280 C 300.361 119.891,302.307 118.304,304.068 116.753 C 305.830 115.202,307.909 113.528,308.688 113.034 C 313.511 109.977,314.565 107.307,312.127 104.320 C 311.227 103.217,310.198 101.872,309.839 101.331 C 308.372 99.113,303.502 93.904,302.702 93.696 C 301.475 93.376,300.286 94.205,292.102 101.093 C 290.570 102.383,288.930 103.643,288.458 103.894 C 287.985 104.145,285.953 105.775,283.942 107.517 C 276.820 113.686,270.128 118.866,268.858 119.195 C 267.357 119.583,263.841 117.098,253.955 108.664 C 252.653 107.554,250.635 105.911,249.471 105.013 C 248.306 104.116,246.110 102.339,244.590 101.065 C 243.070 99.791,241.077 98.182,240.162 97.490 C 239.247 96.797,237.749 95.628,236.832 94.891 C 234.546 93.053,233.894 93.158,231.437 95.765 M100.670 95.386 C 100.053 95.835,95.366 101.290,94.141 102.984 C 93.529 103.831,92.453 105.174,91.750 105.968 C 89.431 108.589,90.504 111.005,95.476 114.362 C 96.218 114.862,98.037 116.356,99.519 117.682 C 101.001 119.008,103.114 120.748,104.214 121.548 C 105.314 122.348,107.258 123.869,108.533 124.928 C 111.215 127.153,114.656 129.860,116.717 131.364 C 120.340 134.009,119.294 135.657,109.316 143.022 C 107.594 144.293,104.795 146.545,103.095 148.027 C 101.395 149.509,99.187 151.284,98.189 151.971 C 95.713 153.674,91.627 157.994,91.627 158.908 C 91.627 159.608,91.992 160.165,94.889 163.882 C 102.943 174.219,102.777 174.130,106.996 170.383 C 108.083 169.417,109.444 168.331,110.021 167.968 C 110.597 167.605,112.194 166.338,113.571 165.151 C 114.947 163.964,116.679 162.581,117.421 162.076 C 118.162 161.572,120.154 159.928,121.848 158.424 C 123.542 156.920,125.399 155.394,125.976 155.033 C 126.552 154.671,127.931 153.569,129.041 152.584 C 130.998 150.846,135.352 147.834,135.909 147.834 C 136.394 147.834,141.438 151.322,142.830 152.620 C 143.571 153.312,144.870 154.373,145.717 154.980 C 146.564 155.586,148.533 157.215,150.092 158.599 C 151.651 159.984,153.756 161.723,154.769 162.464 C 155.783 163.205,157.671 164.678,158.965 165.736 C 168.751 173.745,169.205 173.945,171.187 171.126 C 171.577 170.571,172.771 169.045,173.840 167.734 C 174.909 166.424,176.035 164.984,176.342 164.535 C 176.650 164.086,177.637 162.815,178.537 161.710 C 179.437 160.604,180.173 159.359,180.173 158.941 C 180.173 158.009,176.843 154.431,174.221 152.546 C 173.154 151.779,170.997 150.016,169.427 148.627 C 167.858 147.238,165.845 145.582,164.953 144.947 C 159.242 140.877,153.066 135.498,152.913 134.460 C 152.783 133.580,154.193 131.838,156.181 130.421 C 159.208 128.263,164.652 123.968,165.351 123.186 C 165.775 122.713,166.759 121.920,167.538 121.425 C 168.317 120.930,170.309 119.342,171.965 117.896 C 173.621 116.451,175.871 114.622,176.966 113.832 C 182.006 110.195,182.312 108.835,179.019 104.716 C 170.476 94.030,170.148 93.834,166.278 97.113 C 164.965 98.224,163.181 99.632,162.312 100.241 C 161.443 100.851,160.015 102.005,159.139 102.808 C 158.263 103.610,156.878 104.692,156.059 105.213 C 155.241 105.734,153.446 107.193,152.069 108.454 C 150.693 109.716,148.867 111.253,148.011 111.871 C 147.155 112.488,145.422 113.896,144.161 115.000 C 141.688 117.164,140.105 118.345,137.535 119.942 L 135.897 120.960 134.537 120.157 C 132.146 118.747,125.983 113.912,120.385 109.054 C 118.733 107.621,116.364 105.669,115.120 104.716 C 112.168 102.454,109.640 100.453,106.001 97.498 C 103.160 95.190,101.722 94.620,100.670 95.386 M195.188 226.207 C 193.811 226.489,190.953 226.736,188.835 226.755 C 186.718 226.774,184.206 226.968,183.253 227.186 C 182.300 227.404,180.395 227.750,179.018 227.955 C 164.969 230.051,146.025 237.885,136.092 245.707 C 134.942 246.613,132.676 248.306,131.056 249.471 C 123.381 254.988,112.660 266.432,110.643 271.260 C 109.904 273.029,110.497 274.035,113.162 275.531 C 115.468 276.825,119.096 279.306,120.610 280.624 C 124.683 284.172,127.467 283.567,130.996 278.367 C 134.637 272.999,145.570 263.802,153.401 259.518 C 154.663 258.827,156.136 257.952,156.674 257.572 C 159.538 255.550,172.577 250.512,177.093 249.682 C 177.834 249.546,179.480 249.194,180.751 248.901 C 188.601 247.085,189.588 246.999,202.310 247.014 C 215.285 247.029,214.477 246.952,224.447 249.125 C 232.768 250.940,243.998 255.120,248.123 257.939 C 248.970 258.518,250.529 259.446,251.588 260.000 C 253.585 261.046,254.160 261.443,261.232 266.653 C 265.414 269.735,271.431 275.651,273.173 278.393 C 275.284 281.718,276.568 281.958,280.269 279.719 C 281.434 279.015,283.154 278.051,284.092 277.579 C 287.162 276.031,292.265 272.471,292.661 271.602 C 293.145 270.541,292.471 269.135,290.248 266.566 C 289.378 265.561,288.244 264.071,287.729 263.255 C 286.618 261.494,277.431 252.433,275.563 251.256 C 274.845 250.803,273.402 249.775,272.355 248.970 C 266.647 244.582,264.849 243.304,262.753 242.143 C 261.482 241.440,259.991 240.554,259.439 240.176 C 254.475 236.769,237.942 230.273,232.145 229.451 C 230.714 229.248,229.133 228.930,228.631 228.744 C 228.129 228.558,226.780 228.285,225.632 228.137 C 224.485 227.989,222.586 227.618,221.413 227.312 C 220.240 227.006,217.599 226.756,215.545 226.756 C 213.491 226.756,210.452 226.497,208.792 226.179 C 205.169 225.486,198.636 225.499,195.188 226.207 " stroke="none" fill="#040404" fill-rule="evenodd"></path></g></svg>