<svg id="svg" xmlns="http://www.w3.org/2000/svg" xmlns:xlink="http://www.w3.org/1999/xlink" width="400" height="400" viewBox="0, 0, 400,400"><g id="svgg"><path id="path0" d="M258.036 25.859 C 196.628 33.008,158.451 97.530,181.429 155.329 L 184.635 163.393 112.750 235.407 C 32.091 316.212,37.435 310.067,36.879 322.656 C 35.646 350.571,67.008 363.035,87.832 342.906 L 94.141 336.807 112.500 355.055 C 140.578 382.963,136.379 383.696,175.879 343.989 C 212.983 306.690,212.399 310.757,184.665 282.793 L 166.438 264.414 196.306 234.553 L 226.175 204.692 232.423 207.377 C 288.082 231.294,352.411 196.296,362.853 136.418 C 373.771 73.808,321.327 18.491,258.036 25.859 M284.459 87.718 C 307.241 98.676,312.284 127.876,294.429 145.448 C 265.399 174.019,218.712 138.692,238.112 102.834 C 246.936 86.524,267.817 79.713,284.459 87.718 " stroke="none" fill="#000000" fill-rule="evenodd"></path></g></svg>