<svg id="svg" version="1.1" xmlns="http://www.w3.org/2000/svg" xmlns:xlink="http://www.w3.org/1999/xlink" width="400" height="225" viewBox="0, 0, 400,225"><g id="svgg"><path id="path0" d="M187.974 42.384 C 185.966 42.842,183.903 44.033,182.573 45.502 C 181.425 46.770,180.964 47.563,127.273 140.584 C 121.748 150.158,117.312 158.072,117.072 158.785 C 115.097 164.647,118.784 171.194,124.854 172.602 C 126.074 172.885,133.485 172.915,190.978 172.867 L 255.729 172.813 256.979 172.313 C 263.226 169.815,265.931 163.039,262.996 157.243 C 262.721 156.700,252.875 139.591,241.116 119.222 C 229.358 98.853,215.195 74.313,209.643 64.688 C 204.091 55.062,199.158 46.679,198.681 46.056 C 196.380 43.059,191.841 41.503,187.974 42.384 M192.867 45.177 C 196.053 46.169,195.184 44.899,208.649 68.229 C 214.932 79.115,229.115 103.677,240.168 122.813 C 251.220 141.948,260.522 158.145,260.837 158.805 C 262.860 163.039,260.503 168.354,255.932 169.865 C 254.963 170.185,250.009 170.207,189.994 170.158 L 125.104 170.104 123.909 169.544 C 119.941 167.685,118.064 162.598,119.926 158.750 C 121.202 156.112,183.517 48.423,184.281 47.536 C 186.368 45.111,189.707 44.193,192.867 45.177 M183.472 79.097 C 183.396 79.174,183.333 90.939,183.333 105.243 L 183.333 131.250 190.313 131.250 L 197.292 131.250 197.292 105.104 L 197.292 78.958 190.451 78.958 C 186.689 78.958,183.549 79.021,183.472 79.097 M188.229 138.206 C 178.645 140.539,179.924 154.805,189.767 155.366 C 193.573 155.583,196.775 153.756,198.255 150.524 C 201.385 143.686,195.486 136.439,188.229 138.206 " stroke="none" fill="#fbf6f6" fill-rule="evenodd"></path><path id="path1" d="M186.458 33.449 C 181.875 34.432,177.891 36.794,175.147 40.153 C 173.769 41.841,110.195 151.720,109.060 154.375 C 106.489 160.394,107.180 167.734,110.826 173.125 C 114.103 177.970,119.419 181.214,125.162 181.872 C 127.731 182.166,252.543 182.160,255.415 181.865 C 265.690 180.811,273.188 172.474,273.207 162.083 C 273.218 156.386,273.748 157.523,259.900 133.542 C 253.846 123.057,239.620 98.401,228.286 78.750 C 216.952 59.099,207.253 42.386,206.732 41.611 C 202.525 35.352,193.855 31.862,186.458 33.449 M193.935 42.728 C 197.784 44.043,197.531 43.689,209.643 64.688 C 215.195 74.313,229.358 98.853,241.116 119.222 C 252.875 139.591,262.721 156.700,262.996 157.243 C 265.931 163.039,263.226 169.815,256.979 172.313 L 255.729 172.813 190.978 172.867 C 133.485 172.915,126.074 172.885,124.854 172.602 C 118.784 171.194,115.097 164.647,117.072 158.785 C 117.312 158.072,121.748 150.158,127.273 140.584 C 180.964 47.563,181.425 46.770,182.573 45.502 C 185.301 42.488,189.927 41.359,193.935 42.728 M187.774 45.179 C 186.360 45.667,185.237 46.425,184.281 47.536 C 183.517 48.423,121.202 156.112,119.926 158.750 C 118.064 162.598,119.941 167.685,123.909 169.544 L 125.104 170.104 189.994 170.158 C 250.009 170.207,254.963 170.185,255.932 169.865 C 260.503 168.354,262.860 163.039,260.837 158.805 C 260.522 158.145,251.220 141.948,240.168 122.813 C 229.115 103.677,214.932 79.115,208.649 68.229 C 202.367 57.344,196.950 48.084,196.613 47.652 C 194.743 45.257,190.767 44.144,187.774 45.179 M197.292 105.104 L 197.292 131.250 190.313 131.250 L 183.333 131.250 183.333 105.243 C 183.333 90.939,183.396 79.174,183.472 79.097 C 183.549 79.021,186.689 78.958,190.451 78.958 L 197.292 78.958 197.292 105.104 M192.567 138.228 C 202.809 140.896,200.346 155.969,189.767 155.366 C 179.924 154.805,178.645 140.539,188.229 138.206 C 189.675 137.854,191.159 137.861,192.567 138.228 " stroke="none" fill="#e81111" fill-rule="evenodd"></path><path id="path2" d="M189.226 33.071 C 189.889 33.112,190.921 33.112,191.518 33.070 C 192.115 33.028,191.573 32.994,190.313 32.995 C 189.052 32.995,188.563 33.029,189.226 33.071 M184.268 33.825 C 183.465 34.086,182.621 34.407,182.393 34.539 C 181.891 34.830,182.164 34.875,182.698 34.589 C 182.907 34.477,183.862 34.154,184.820 33.871 C 185.778 33.587,186.375 33.355,186.146 33.354 C 185.917 33.353,185.072 33.565,184.268 33.825 M197.189 34.234 C 201.321 35.886,204.812 38.625,206.927 41.875 C 207.338 42.505,216.948 59.099,228.283 78.750 C 239.619 98.401,253.846 123.057,259.900 133.542 C 273.748 157.523,273.218 156.386,273.207 162.083 C 273.188 172.474,265.690 180.811,255.415 181.865 C 252.543 182.160,127.731 182.166,125.162 181.872 C 118.103 181.063,111.540 176.143,109.049 169.794 C 108.733 168.989,108.439 168.367,108.395 168.411 C 108.188 168.617,109.582 171.531,110.648 173.121 C 113.177 176.894,116.710 179.658,120.803 181.067 C 121.568 181.330,122.332 181.838,123.239 182.686 C 125.712 185.000,128.471 186.535,131.819 187.459 L 133.854 188.021 200.000 188.021 L 266.146 188.021 268.169 187.462 C 280.142 184.155,286.443 170.925,281.285 159.921 C 280.431 158.099,217.785 49.473,216.390 47.396 C 214.191 44.121,210.509 41.325,206.667 40.012 C 205.604 39.649,205.021 39.269,203.958 38.251 C 201.870 36.250,198.522 34.263,196.563 33.862 C 196.219 33.792,196.501 33.959,197.189 34.234 M179.887 35.813 C 177.818 37.087,175.765 38.954,174.423 40.782 C 173.685 41.788,160.991 63.557,155.897 72.552 C 155.849 72.638,155.852 72.708,155.905 72.708 C 155.957 72.708,160.018 65.748,164.927 57.240 C 175.521 38.885,175.924 38.326,180.525 35.638 C 181.321 35.172,181.876 34.792,181.759 34.792 C 181.641 34.792,180.799 35.251,179.887 35.813 M149.993 82.760 C 143.641 93.782,144.028 93.097,144.319 92.813 C 144.470 92.664,152.963 78.024,155.769 73.073 C 155.818 72.987,155.815 72.917,155.762 72.917 C 155.709 72.917,153.113 77.346,149.993 82.760 M128.223 120.469 C 110.868 150.544,112.147 148.311,112.444 148.021 C 112.589 147.879,141.181 98.443,144.103 93.281 C 144.151 93.195,144.148 93.125,144.096 93.125 C 144.044 93.125,136.901 105.430,128.223 120.469 M110.657 150.885 C 109.277 153.301,108.221 155.582,108.399 155.760 C 108.444 155.805,108.688 155.301,108.940 154.640 C 109.322 153.643,109.929 152.507,112.227 148.490 C 112.276 148.404,112.271 148.333,112.215 148.333 C 112.160 148.333,111.458 149.482,110.657 150.885 M108.036 156.577 C 107.959 156.883,107.937 157.173,107.986 157.222 C 108.035 157.271,108.138 157.061,108.214 156.756 C 108.291 156.451,108.313 156.161,108.264 156.112 C 108.215 156.062,108.112 156.272,108.036 156.577 M107.369 162.083 C 107.369 163.286,107.403 163.779,107.445 163.177 C 107.487 162.576,107.487 161.591,107.445 160.990 C 107.403 160.388,107.369 160.880,107.369 162.083 M107.946 167.083 C 107.946 167.255,108.027 167.583,108.125 167.813 C 108.238 168.075,108.304 168.114,108.304 167.917 C 108.304 167.745,108.223 167.417,108.125 167.188 C 108.012 166.925,107.946 166.886,107.946 167.083 " stroke="none" fill="#830404" fill-rule="evenodd"></path></g></svg>