<svg id="svg" xmlns="http://www.w3.org/2000/svg" xmlns:xlink="http://www.w3.org/1999/xlink" width="400" height="333.33333333333337" viewBox="0, 0, 400,333.33333333333337"><g id="svgg"><path id="path0" d="M190.833 0.515 C 160.361 2.193,125.504 12.897,96.417 29.508 C 73.256 42.736,55.061 67.068,50.927 90.341 C 49.937 95.918,50.004 87.392,50.002 208.208 L 50.000 319.000 63.166 319.000 L 76.331 319.000 76.376 208.042 L 76.421 97.083 76.880 95.034 C 80.986 76.709,101.156 54.271,121.691 45.186 C 158.948 28.701,192.477 23.220,224.167 28.433 C 243.896 31.678,274.231 41.943,286.333 49.469 C 304.823 60.966,319.585 79.251,323.120 95.034 L 323.579 97.083 323.624 208.042 L 323.669 319.000 336.834 319.000 L 350.000 319.000 349.998 208.208 C 349.996 87.356,350.063 95.853,349.068 90.333 C 344.846 66.913,326.738 42.711,303.547 29.494 C 267.954 9.208,226.505 -1.448,190.833 0.515 M87.010 140.022 C 82.974 140.619,79.324 144.032,78.515 147.967 C 78.190 149.547,78.265 323.999,78.591 325.257 C 79.500 328.756,81.838 331.214,85.583 332.607 C 86.779 333.051,103.785 333.173,105.612 332.750 C 109.363 331.882,112.417 328.827,113.358 325.000 C 113.546 324.236,113.583 309.512,113.583 236.333 L 113.583 148.583 113.196 147.333 C 112.169 144.018,109.692 141.472,106.430 140.378 L 105.083 139.927 96.583 139.895 C 91.876 139.878,87.605 139.934,87.010 140.022 M294.978 140.006 C 291.156 140.590,288.103 143.178,286.697 147.028 L 286.250 148.250 286.250 236.417 L 286.250 324.583 286.760 326.007 C 287.996 329.459,290.790 331.986,294.211 332.747 C 296.306 333.213,313.054 333.046,314.379 332.545 C 318.010 331.174,320.619 328.287,321.319 324.867 C 321.708 322.966,321.559 149.118,321.167 147.585 C 320.286 144.139,317.437 141.252,313.901 140.223 C 312.795 139.901,296.865 139.718,294.978 140.006 M45.500 155.136 C -12.088 190.912,-15.771 272.436,38.371 312.936 C 41.510 315.284,47.420 319.136,47.603 318.953 C 47.638 318.917,47.648 281.753,47.625 236.365 L 47.583 153.842 45.500 155.136 M352.333 236.403 C 352.333 281.831,352.368 319.000,352.411 319.000 C 352.802 319.000,359.268 314.730,361.991 312.674 C 383.661 296.309,396.857 272.745,399.701 245.333 C 399.995 242.498,399.993 230.483,399.699 227.667 C 396.416 196.306,380.094 170.645,352.958 154.185 L 352.333 153.806 352.333 236.403 " stroke="none" fill="#000000" fill-rule="evenodd"></path></g></svg>