<svg id="svg" xmlns="http://www.w3.org/2000/svg" xmlns:xlink="http://www.w3.org/1999/xlink" width="400" height="400" viewBox="0, 0, 400,400"><g id="svgg"><path id="path0" d="M176.317 25.141 C 150.883 37.995,141.729 72.318,157.103 97.186 C 175.914 127.611,224.114 127.565,242.947 97.104 C 269.684 53.858,221.809 2.151,176.317 25.141 M176.317 155.141 C 150.883 167.995,141.729 202.318,157.103 227.186 C 175.914 257.611,224.114 257.565,242.947 227.104 C 269.684 183.858,221.809 132.151,176.317 155.141 M177.000 284.319 C 142.083 302.399,139.733 352.504,172.843 372.928 C 195.611 386.972,229.163 379.399,242.947 357.104 C 269.234 314.587,221.114 261.477,177.000 284.319 " stroke="none" fill="#000000" fill-rule="evenodd"></path></g></svg>