<svg id="svg" version="1.1" xmlns="http://www.w3.org/2000/svg" xmlns:xlink="http://www.w3.org/1999/xlink" width="400" height="400" viewBox="0, 0, 400,400"><g id="svgg"><path id="path0" d="M179.800 8.644 C 177.600 8.953,173.820 9.487,171.400 9.829 C 143.052 13.840,118.641 23.472,91.000 41.553 C 88.106 43.446,76.254 52.832,73.587 55.341 C 72.151 56.693,69.838 58.790,68.449 60.000 C 56.634 70.290,40.748 91.045,31.425 108.372 C 19.857 129.869,12.469 153.389,9.804 177.200 C 9.471 180.170,9.000 184.310,8.755 186.400 C 8.181 191.312,8.176 209.572,8.747 214.211 C 8.991 216.185,9.471 220.410,9.816 223.600 C 14.318 265.286,33.882 306.010,64.000 336.386 C 70.938 343.384,84.192 354.712,89.816 358.453 C 117.602 376.932,140.186 385.934,171.600 391.050 C 184.699 393.183,218.772 392.831,233.000 390.415 C 247.752 387.910,254.619 386.001,271.400 379.738 C 305.438 367.035,340.202 338.644,360.712 306.800 C 365.343 299.610,366.118 298.318,369.592 292.000 C 371.193 289.088,375.600 280.142,375.600 279.804 C 375.600 279.711,376.137 278.503,376.794 277.118 C 377.450 275.733,379.083 271.540,380.422 267.800 C 386.601 250.539,387.451 246.962,391.262 222.200 C 392.355 215.097,392.353 185.650,391.258 178.600 C 391.019 177.060,390.179 171.660,389.390 166.600 C 387.309 153.244,382.269 135.997,376.883 123.800 C 373.776 116.764,372.715 114.609,369.026 107.845 C 364.906 100.288,357.238 88.115,354.636 85.000 C 353.718 83.900,351.634 81.290,350.006 79.200 C 343.356 70.665,329.743 56.885,321.932 50.782 C 301.502 34.821,284.919 25.554,263.800 18.293 C 248.015 12.866,242.008 11.522,220.527 8.607 C 214.463 7.784,185.729 7.810,179.800 8.644 M215.400 35.032 C 273.401 39.604,326.752 77.665,351.043 131.800 C 363.757 160.136,367.653 185.023,364.785 219.600 C 362.927 242.000,352.553 270.507,338.511 291.791 C 291.025 363.772,197.547 387.383,121.800 346.527 C 78.821 323.346,46.967 279.964,37.852 232.200 C 34.311 213.642,34.313 187.069,37.858 168.600 C 48.708 112.064,90.351 63.346,144.162 44.236 C 162.713 37.647,170.437 36.153,195.800 34.246 C 198.720 34.027,206.721 34.347,215.400 35.032 M140.000 100.923 C 136.934 101.968,137.185 92.993,137.299 197.335 L 137.400 290.469 138.522 291.435 L 139.645 292.400 157.378 292.400 C 174.241 292.400,175.158 292.362,176.056 291.635 L 177.000 290.871 177.200 252.735 C 177.310 231.761,177.557 214.278,177.748 213.885 C 178.689 211.955,177.686 212.000,219.811 212.000 L 259.262 212.000 260.431 210.831 L 261.600 209.662 261.600 195.463 C 261.600 187.655,261.489 180.976,261.353 180.622 C 260.731 179.001,260.881 179.007,219.509 178.800 L 179.618 178.600 178.509 177.491 L 177.400 176.382 177.400 157.091 C 177.400 146.481,177.541 137.293,177.714 136.674 C 178.373 134.312,176.506 134.400,225.965 134.400 L 271.155 134.400 272.278 133.435 L 273.400 132.470 273.514 118.043 C 273.644 101.723,273.622 101.577,270.899 100.821 C 268.619 100.188,141.866 100.286,140.000 100.923 " stroke="none" fill="#050505" fill-rule="evenodd"></path><path id="path1" d="M195.800 34.246 C 170.437 36.153,162.713 37.647,144.162 44.236 C 86.476 64.723,43.868 118.111,36.130 179.600 C 34.392 193.413,35.208 218.344,37.852 232.200 C 46.967 279.964,78.821 323.346,121.800 346.527 C 170.984 373.055,229.543 373.139,278.600 346.752 C 322.647 323.060,353.962 280.080,363.201 230.637 C 366.658 212.137,366.656 188.883,363.197 170.182 C 350.651 102.357,296.322 48.373,228.800 36.639 C 220.393 35.178,201.567 33.813,195.800 34.246 M270.899 100.821 C 273.622 101.577,273.644 101.723,273.514 118.043 L 273.400 132.470 272.278 133.435 L 271.155 134.400 225.965 134.400 C 176.506 134.400,178.373 134.312,177.714 136.674 C 177.541 137.293,177.400 146.481,177.400 157.091 L 177.400 176.382 178.509 177.491 L 179.618 178.600 219.509 178.800 C 260.881 179.007,260.731 179.001,261.353 180.622 C 261.489 180.976,261.600 187.655,261.600 195.463 L 261.600 209.662 260.431 210.831 L 259.262 212.000 219.811 212.000 C 177.686 212.000,178.689 211.955,177.748 213.885 C 177.557 214.278,177.310 231.761,177.200 252.735 L 177.000 290.871 176.056 291.635 C 175.158 292.362,174.241 292.400,157.378 292.400 L 139.645 292.400 138.522 291.435 L 137.400 290.469 137.299 197.335 C 137.185 92.993,136.934 101.968,140.000 100.923 C 141.866 100.286,268.619 100.188,270.899 100.821 " stroke="none" fill="#fbfbfb" fill-rule="evenodd"></path></g></svg>