<svg id="svg" version="1.1" xmlns="http://www.w3.org/2000/svg" xmlns:xlink="http://www.w3.org/1999/xlink" width="400" height="400" viewBox="0, 0, 400,400"><g id="svgg"><path id="path0" d="M142.735 77.448 C 105.439 107.128,75.029 131.720,75.157 132.098 C 75.370 132.723,209.749 213.281,210.579 213.281 C 210.776 213.281,210.938 201.511,210.938 187.124 L 210.938 160.967 213.086 160.368 C 217.401 159.163,233.704 159.699,239.844 161.247 C 301.798 176.872,310.769 259.467,253.516 287.131 C 220.659 303.006,180.508 289.329,164.437 256.786 C 146.483 220.430,87.581 235.131,87.509 275.987 C 87.504 278.893,87.106 281.902,86.625 282.672 C 84.690 285.771,99.590 311.068,111.097 324.219 C 174.387 396.554,287.842 392.100,345.115 315.032 C 417.899 217.093,347.737 78.754,224.815 77.838 L 210.957 77.734 210.752 50.610 L 210.547 23.485 142.735 77.448 " stroke="none" fill="#000000" fill-rule="evenodd"></path></g></svg>