<svg id="svg" xmlns="http://www.w3.org/2000/svg" xmlns:xlink="http://www.w3.org/1999/xlink" width="400" height="244" viewBox="0, 0, 400,244"><g id="svgg"><path id="path0" d="M99.956 5.704 C 88.587 13.049,7.621 94.856,3.264 103.401 C -0.477 110.738,-1.112 130.794,2.126 139.370 C 4.956 146.866,92.932 235.236,102.502 240.196 C 109.743 243.948,114.618 244.064,242.650 243.542 L 375.296 243.000 382.472 238.082 C 386.419 235.377,391.978 229.571,394.824 225.181 L 400.000 217.199 400.000 122.000 L 400.000 26.801 394.824 18.819 C 391.978 14.429,386.419 8.623,382.472 5.918 L 375.296 1.000 242.104 0.459 L 108.912 -0.082 99.956 5.704 M365.857 26.926 C 374.169 31.224,374.000 29.225,374.000 123.164 C 374.000 206.960,373.862 210.138,370.051 213.949 C 363.845 220.155,363.553 220.167,236.463 219.568 L 115.926 219.000 70.963 173.910 C 30.209 133.041,26.000 128.191,26.000 122.099 C 26.000 115.250,106.256 30.437,117.000 25.931 C 124.756 22.678,359.457 23.617,365.857 26.926 M170.000 74.000 C 163.019 80.981,165.022 85.516,183.362 104.258 L 200.724 122.000 183.362 139.742 C 165.022 158.484,163.019 163.019,170.000 170.000 C 176.458 176.458,179.566 174.954,198.855 156.038 L 217.170 138.077 233.085 154.208 C 251.413 172.785,256.357 175.537,263.270 171.007 C 272.267 165.112,269.714 158.801,250.542 139.540 L 233.083 122.000 250.542 104.460 C 269.822 85.091,272.284 78.899,263.098 72.880 C 256.049 68.261,252.896 70.005,234.054 88.946 L 217.167 105.920 198.853 87.960 C 179.566 69.046,176.458 67.542,170.000 74.000 " stroke="none" fill="#000000" fill-rule="evenodd"></path></g></svg>