<svg id="svg" xmlns="http://www.w3.org/2000/svg" xmlns:xlink="http://www.w3.org/1999/xlink" width="400" height="373.99103139013454" viewBox="0, 0, 400,373.99103139013454"><g id="svgg"><path id="path0" d="M102.774 75.673 C 95.501 80.075,96.044 71.305,96.002 185.066 C 95.960 298.712,95.456 290.426,102.662 294.649 L 106.436 296.861 137.567 296.861 C 171.336 296.861,171.792 296.801,175.706 291.825 C 177.927 289.001,178.225 282.763,176.313 279.103 C 173.141 273.030,170.733 271.849,151.884 267.119 C 142.092 264.662,133.374 262.012,132.511 261.231 C 130.081 259.033,130.081 111.371,132.511 109.172 C 133.374 108.392,141.547 105.908,150.673 103.654 C 173.820 97.935,177.578 95.450,177.578 85.862 C 177.578 73.514,177.665 73.542,138.848 73.547 L 106.278 73.552 102.774 75.673 M241.127 116.158 C 237.517 118.119,236.771 121.753,236.771 137.382 C 236.771 164.595,237.812 164.060,173.262 170.039 C 158.666 171.391,151.035 181.356,156.501 191.926 C 160.096 198.878,161.045 199.140,195.516 202.691 C 227.692 206.005,226.287 205.724,230.731 209.735 C 236.241 214.706,236.771 216.766,236.771 233.184 C 236.771 256.166,241.798 261.731,253.173 251.345 C 262.922 242.444,281.431 225.361,287.892 219.302 C 291.592 215.832,299.590 208.382,305.667 202.746 C 319.531 189.887,321.274 186.722,317.992 180.374 C 316.973 178.404,285.324 148.474,254.711 120.529 C 248.155 114.545,245.606 113.725,241.127 116.158 " stroke="none" fill="#000000" fill-rule="evenodd"></path></g></svg>