<svg id="svg" version="1.1" xmlns="http://www.w3.org/2000/svg" xmlns:xlink="http://www.w3.org/1999/xlink" width="400" height="400" viewBox="0, 0, 400,400"><g id="svgg"><path id="path0" d="M189.350 2.002 C 155.155 4.040,122.470 14.367,94.757 31.891 L 92.681 33.204 101.208 42.352 C 105.898 47.383,109.838 51.539,109.962 51.587 C 110.087 51.635,111.909 50.684,114.011 49.473 C 123.225 44.168,134.329 39.238,146.172 35.195 C 150.202 33.819,155.900 31.870,158.833 30.864 C 169.146 27.327,174.972 26.531,190.667 26.513 C 203.104 26.499,208.841 26.709,211.333 27.268 C 212.158 27.453,215.383 27.848,218.500 28.147 C 228.731 29.126,230.454 29.345,234.667 30.204 C 236.958 30.672,239.247 31.110,239.752 31.178 C 248.865 32.410,273.311 42.127,286.493 49.758 L 290.820 52.263 291.651 51.048 C 292.108 50.380,292.900 48.955,293.410 47.882 C 294.566 45.450,298.196 41.617,300.667 40.219 C 301.675 39.648,303.750 37.982,305.279 36.517 C 308.561 33.370,308.895 34.065,302.152 30.015 C 268.502 9.805,227.844 -0.292,189.350 2.002 M75.088 44.583 C 70.888 57.892,71.463 76.339,76.554 91.661 C 81.476 106.474,88.208 117.286,102.481 133.302 C 104.508 135.576,106.125 137.575,106.075 137.743 C 106.025 137.912,106.108 137.973,106.261 137.878 C 106.413 137.784,109.621 140.811,113.389 144.604 C 117.157 148.397,122.057 153.283,124.278 155.462 C 126.499 157.641,128.243 159.543,128.153 159.689 C 128.063 159.835,128.165 160.062,128.379 160.195 C 128.623 160.346,128.680 160.292,128.532 160.052 C 128.401 159.840,128.419 159.667,128.572 159.667 C 129.100 159.667,133.686 164.536,133.427 164.821 C 133.284 164.978,133.361 164.995,133.598 164.858 C 133.878 164.697,134.874 165.409,136.438 166.888 C 137.763 168.141,141.281 171.325,144.257 173.962 C 147.232 176.600,149.667 178.887,149.667 179.046 C 149.667 179.204,149.819 179.333,150.006 179.333 C 150.193 179.333,153.155 181.830,156.589 184.882 C 163.812 191.301,164.167 191.611,166.829 193.834 C 170.314 196.744,171.322 197.749,171.107 198.097 C 170.986 198.293,171.062 198.334,171.288 198.195 C 171.725 197.925,174.889 200.553,174.742 201.065 C 174.691 201.240,174.787 201.298,174.954 201.195 C 175.121 201.092,175.414 201.196,175.605 201.426 C 175.966 201.861,174.540 203.485,163.681 215.000 C 161.001 217.842,158.008 221.026,157.029 222.077 C 156.050 223.128,155.095 223.892,154.906 223.775 C 154.718 223.659,154.662 223.723,154.782 223.917 C 154.903 224.112,153.688 225.648,152.084 227.332 C 150.479 229.015,149.043 230.652,148.893 230.969 C 148.673 231.432,150.408 233.335,157.676 240.602 L 166.733 249.658 170.450 246.754 C 172.494 245.157,175.083 243.096,176.202 242.175 C 182.159 237.272,188.738 232.177,189.016 232.250 C 189.191 232.296,189.296 232.196,189.250 232.027 C 189.204 231.859,191.764 229.606,194.939 227.021 L 200.711 222.320 203.105 224.283 C 204.422 225.363,205.459 226.427,205.408 226.648 C 205.358 226.869,205.469 226.955,205.656 226.840 C 205.842 226.725,206.371 227.007,206.831 227.467 C 207.290 227.927,207.667 228.205,207.667 228.086 C 207.667 227.967,208.154 228.328,208.750 228.889 C 209.686 229.771,222.043 239.726,231.546 247.253 L 234.591 249.666 243.563 240.749 C 251.451 232.910,253.688 230.465,252.707 230.754 C 252.559 230.798,251.114 229.408,249.496 227.667 C 247.877 225.925,244.728 222.550,242.498 220.167 C 240.268 217.783,237.481 214.790,236.305 213.515 C 234.035 211.054,230.766 207.560,227.400 204.000 L 225.352 201.833 226.426 200.826 C 227.017 200.272,228.922 198.622,230.660 197.160 C 233.420 194.837,243.509 186.042,250.483 179.880 C 280.291 153.540,303.598 129.654,312.650 116.167 C 327.597 93.897,332.850 67.108,326.505 45.507 C 325.405 41.762,325.569 41.862,323.748 43.836 C 322.904 44.751,319.878 47.975,317.025 51.000 C 314.171 54.025,310.935 57.474,309.835 58.665 C 308.734 59.856,307.750 60.906,307.648 60.999 C 307.446 61.182,293.784 75.824,290.540 79.333 C 280.264 90.452,274.572 96.314,274.246 96.113 C 274.032 95.981,273.997 96.060,274.156 96.316 C 274.476 96.833,270.055 101.398,269.525 101.097 C 269.328 100.985,269.274 101.012,269.405 101.157 C 269.794 101.588,269.000 102.738,268.457 102.530 C 268.168 102.419,268.053 102.484,268.179 102.686 C 268.353 102.968,264.922 106.821,258.667 113.370 C 258.208 113.849,254.551 117.784,250.540 122.114 C 246.529 126.444,243.113 129.903,242.949 129.802 C 242.784 129.700,242.691 129.741,242.741 129.892 C 242.903 130.384,240.939 132.668,240.546 132.443 C 240.337 132.324,240.281 132.352,240.420 132.506 C 240.560 132.659,239.360 134.146,237.753 135.810 C 234.709 138.964,233.136 140.638,225.674 148.667 C 223.204 151.325,220.259 154.475,219.130 155.667 C 218.002 156.858,216.441 158.542,215.662 159.409 C 214.882 160.276,214.092 160.890,213.904 160.774 C 213.717 160.658,213.654 160.709,213.763 160.887 C 213.959 161.204,201.179 175.167,200.693 175.167 C 200.137 175.167,190.307 164.313,190.532 163.948 C 190.684 163.703,190.623 163.655,190.363 163.815 C 189.900 164.101,188.952 163.014,189.248 162.536 C 189.351 162.368,189.289 162.321,189.110 162.432 C 188.610 162.741,184.199 158.153,184.511 157.649 C 184.669 157.394,184.634 157.314,184.423 157.445 C 183.991 157.712,183.248 156.872,183.586 156.499 C 183.722 156.349,183.662 156.325,183.452 156.444 C 183.227 156.573,180.492 153.897,176.785 149.920 C 173.328 146.211,166.255 138.635,161.067 133.083 C 155.426 127.047,151.728 122.837,151.869 122.610 C 151.998 122.401,151.956 122.321,151.776 122.432 C 151.326 122.710,146.864 118.157,147.143 117.704 C 147.271 117.498,147.180 117.397,146.934 117.469 C 146.695 117.540,145.300 116.298,143.833 114.708 C 142.367 113.119,137.728 108.147,133.526 103.659 C 129.324 99.172,125.194 94.750,124.350 93.833 C 119.891 88.993,117.629 86.564,115.188 84.000 C 110.013 78.562,100.147 68.011,79.889 46.250 C 75.593 41.635,75.976 41.768,75.088 44.583 M50.982 69.186 C -8.168 136.914,-14.721 235.114,34.924 309.812 C 38.290 314.876,39.166 315.996,39.360 315.478 C 39.493 315.124,40.136 313.108,40.789 311.000 C 42.473 305.568,44.413 302.545,49.556 297.338 C 51.817 295.048,53.667 293.134,53.667 293.084 C 53.667 293.034,52.561 291.157,51.210 288.913 C 38.203 267.316,30.141 242.839,27.500 216.926 C 26.854 210.584,26.858 209.011,27.523 208.525 C 27.989 208.184,28.002 207.602,27.644 203.162 C 27.423 200.423,27.331 196.721,27.440 194.935 C 27.574 192.737,27.519 191.615,27.272 191.462 C 26.384 190.913,27.892 177.020,30.035 166.000 C 34.244 144.356,43.790 121.443,56.355 102.824 L 59.286 98.482 58.289 95.158 C 55.781 86.793,54.667 80.151,54.383 71.853 L 54.167 65.539 50.982 69.186 M346.908 72.728 C 346.650 80.555,345.418 87.358,342.615 96.431 L 341.606 99.694 344.591 104.264 C 359.488 127.068,368.693 152.063,371.988 178.655 C 372.958 186.478,373.201 191.003,372.670 191.331 C 372.346 191.531,372.221 193.126,372.170 197.716 C 372.133 201.080,371.982 204.854,371.836 206.102 C 371.585 208.250,371.609 208.381,372.285 208.558 C 373.134 208.779,373.178 209.559,372.662 215.167 C 370.263 241.245,361.935 267.128,349.088 288.433 L 346.717 292.367 350.899 296.433 C 356.902 302.271,359.320 306.018,361.002 312.088 C 361.359 313.375,361.704 314.482,361.770 314.548 C 361.988 314.766,369.216 303.581,372.007 298.706 C 414.238 224.943,404.867 132.733,348.632 68.704 L 347.098 66.957 346.908 72.728 M125.689 220.685 C 124.199 221.361,116.900 228.201,117.083 228.750 C 117.134 228.903,120.834 232.687,125.304 237.158 L 133.432 245.287 132.549 246.336 C 132.052 246.926,131.667 247.794,131.667 248.323 C 131.667 249.033,131.474 249.309,130.874 249.460 C 130.437 249.570,129.328 250.336,128.408 251.163 C 127.488 251.990,126.509 252.667,126.233 252.667 C 125.672 252.667,120.598 258.054,120.327 258.936 C 120.232 259.246,118.969 260.625,117.520 262.000 C 115.098 264.299,112.109 267.290,107.530 272.000 C 106.550 273.008,105.419 274.321,105.018 274.917 C 104.616 275.512,104.107 276.000,103.885 276.000 C 103.433 276.000,98.333 281.518,98.333 282.007 C 98.333 282.179,97.659 282.941,96.836 283.700 C 96.012 284.460,95.025 285.588,94.642 286.207 C 94.259 286.827,93.750 287.333,93.511 287.333 C 92.915 287.333,88.082 292.286,87.582 293.408 C 87.360 293.908,86.734 294.501,86.192 294.725 C 85.157 295.154,77.995 302.221,77.115 303.681 C 76.660 304.437,76.271 304.570,73.552 304.898 C 58.519 306.715,51.845 324.137,61.983 335.101 C 79.266 353.793,113.103 356.253,136.646 340.529 C 139.219 338.810,139.833 338.339,142.047 336.389 C 142.787 335.738,143.472 335.380,143.706 335.524 C 143.933 335.665,144.016 335.628,143.899 335.439 C 143.631 335.006,146.123 332.575,146.491 332.910 C 146.646 333.051,146.688 333.015,146.583 332.830 C 146.294 332.319,147.222 331.225,147.696 331.518 C 147.961 331.682,148.017 331.631,147.856 331.371 C 147.709 331.132,148.200 330.273,149.076 329.236 C 161.488 314.537,165.903 291.564,159.784 273.527 C 158.796 270.615,158.840 270.594,161.082 272.914 C 162.102 273.970,164.376 276.255,166.135 277.994 L 169.334 281.154 172.698 277.827 C 177.706 272.874,178.773 270.759,177.953 267.410 C 177.591 265.931,176.551 264.818,161.218 249.500 C 152.226 240.517,144.899 233.054,144.935 232.917 C 144.971 232.779,144.888 232.695,144.750 232.729 C 144.613 232.763,141.840 230.143,138.588 226.907 C 131.150 219.503,129.766 218.835,125.689 220.685 M269.500 220.614 C 268.349 221.317,225.572 263.962,224.158 265.814 C 221.854 268.835,223.018 272.119,228.270 277.417 C 232.468 281.652,231.812 281.502,234.566 278.854 C 235.794 277.674,236.942 276.797,237.117 276.906 C 237.293 277.014,237.337 276.943,237.216 276.747 C 236.967 276.343,239.201 274.118,239.715 274.258 C 239.899 274.309,239.963 274.210,239.857 274.038 C 239.751 273.867,240.187 273.188,240.826 272.530 C 242.092 271.226,242.533 271.004,242.045 271.917 C 240.860 274.131,239.203 282.764,238.829 288.667 C 237.989 301.932,243.015 317.849,251.221 327.915 C 251.872 328.712,252.271 329.498,252.136 329.716 C 251.996 329.943,252.042 330.013,252.248 329.886 C 252.442 329.766,253.445 330.606,254.479 331.751 C 274.684 354.144,312.943 357.478,335.371 338.799 C 336.766 337.637,338.028 336.794,338.174 336.926 C 338.320 337.058,338.347 337.002,338.232 336.801 C 338.117 336.600,338.471 336.006,339.019 335.482 C 350.133 324.834,340.970 303.330,325.917 304.734 C 325.022 304.818,324.667 304.721,324.667 304.393 C 324.667 304.141,323.677 302.910,322.467 301.656 C 321.076 300.216,320.359 299.228,320.518 298.971 C 320.674 298.719,320.631 298.649,320.406 298.789 C 320.197 298.917,319.588 298.355,318.983 297.475 C 318.401 296.629,317.079 295.385,316.045 294.710 C 313.993 293.371,309.995 289.371,309.873 288.534 C 309.644 286.975,306.956 283.619,304.970 282.413 C 302.189 280.724,299.590 278.313,297.454 275.439 C 296.249 273.819,295.084 272.688,293.847 271.939 C 292.841 271.331,292.010 270.683,291.999 270.500 C 291.989 270.317,291.075 269.192,289.970 268.000 C 288.865 266.808,287.296 264.819,286.484 263.578 C 285.411 261.940,284.471 260.977,283.048 260.057 C 281.970 259.361,280.591 258.200,279.983 257.479 C 277.715 254.789,275.506 252.667,274.972 252.667 C 274.670 252.667,274.032 252.077,273.555 251.357 C 273.078 250.636,272.008 249.579,271.177 249.007 C 270.347 248.436,269.667 247.796,269.667 247.586 C 269.667 247.375,269.257 246.775,268.756 246.252 C 267.879 245.337,268.156 244.312,269.119 244.907 C 269.294 245.015,269.337 244.943,269.216 244.747 C 268.967 244.343,271.201 242.118,271.715 242.258 C 271.899 242.309,271.963 242.209,271.856 242.037 C 271.625 241.663,273.901 239.460,274.381 239.592 C 274.566 239.642,274.629 239.542,274.523 239.370 C 274.292 238.997,276.567 236.793,277.048 236.925 C 277.232 236.975,277.296 236.876,277.190 236.704 C 276.959 236.330,279.234 234.127,279.715 234.258 C 279.899 234.309,279.963 234.209,279.856 234.037 C 279.625 233.663,281.901 231.460,282.381 231.592 C 282.566 231.642,282.629 231.543,282.523 231.371 C 282.417 231.200,282.781 230.634,283.332 230.114 C 284.727 228.798,284.752 228.847,280.679 224.875 C 275.757 220.075,272.446 218.813,269.500 220.614 M147.961 273.618 C 154.316 290.096,151.547 308.227,140.594 321.867 C 138.051 325.034,134.446 328.442,133.957 328.140 C 133.720 327.993,133.652 328.040,133.787 328.258 C 134.024 328.642,131.124 330.898,130.594 330.742 C 130.423 330.691,130.363 330.778,130.460 330.935 C 130.893 331.636,122.801 335.808,117.833 337.443 C 111.889 339.399,102.199 340.265,96.333 339.364 C 92.759 338.815,88.000 337.614,88.000 337.261 C 88.000 337.096,87.850 337.053,87.667 337.167 C 86.637 337.803,86.869 336.765,88.024 335.566 C 91.038 332.439,92.721 328.889,93.191 324.667 C 93.345 323.280,93.684 322.165,94.133 321.571 C 95.317 320.000,102.053 313.370,104.137 311.723 C 107.400 309.146,109.186 307.412,109.853 306.174 C 110.201 305.528,110.596 305.000,110.731 305.000 C 111.212 305.000,116.641 299.940,116.843 299.303 C 116.956 298.947,117.648 298.350,118.380 297.976 C 119.112 297.603,121.389 295.565,123.439 293.447 C 125.759 291.050,127.769 289.291,128.761 288.787 C 130.564 287.871,132.710 285.862,133.485 284.361 C 134.123 283.128,137.269 280.150,137.871 280.211 C 138.111 280.235,138.276 280.147,138.237 280.016 C 138.090 279.516,146.046 271.000,146.660 271.000 C 146.820 271.000,147.406 272.178,147.961 273.618 M255.975 271.782 C 256.786 272.243,257.774 273.233,258.383 274.198 C 259.568 276.074,266.410 282.792,267.686 283.333 C 268.156 283.532,268.803 284.141,269.126 284.687 C 269.448 285.232,270.515 286.272,271.497 286.998 C 272.480 287.724,273.386 288.584,273.511 288.909 C 273.636 289.234,274.959 290.623,276.452 291.997 C 277.945 293.370,279.505 294.976,279.919 295.565 C 280.332 296.155,281.362 297.113,282.207 297.694 C 283.051 298.275,284.891 299.894,286.295 301.292 C 290.451 305.431,292.422 307.162,294.091 308.140 C 295.021 308.685,295.667 309.303,295.667 309.649 C 295.667 310.409,302.573 316.885,304.697 318.116 C 305.916 318.822,306.333 319.262,306.333 319.840 C 306.333 320.267,306.679 321.040,307.101 321.558 C 307.655 322.237,307.979 323.281,308.262 325.297 C 308.769 328.907,310.617 332.814,312.963 335.237 C 313.887 336.193,314.537 337.039,314.405 337.117 C 312.372 338.331,303.970 339.667,298.373 339.666 C 264.154 339.663,240.992 305.722,253.346 273.686 C 253.916 272.209,254.431 271.000,254.490 271.000 C 254.550 271.000,255.218 271.352,255.975 271.782 M262.667 361.641 C 261.165 362.503,243.845 368.000,242.631 368.000 C 242.479 368.000,242.441 367.775,242.546 367.500 C 242.779 366.893,242.872 366.892,240.833 367.523 C 237.241 368.634,229.798 370.012,222.042 371.002 C 217.460 371.586,213.609 372.238,213.209 372.496 C 212.540 372.928,208.854 373.298,208.523 372.967 C 208.438 372.882,207.048 372.927,205.434 373.067 C 200.855 373.464,187.705 373.054,186.678 372.483 C 185.413 371.778,177.976 370.460,170.833 369.674 C 167.350 369.291,163.075 368.698,161.333 368.356 C 159.592 368.015,158.121 367.857,158.065 368.006 C 157.884 368.488,146.205 365.009,139.853 362.581 C 137.493 361.679,137.095 361.614,136.186 361.988 C 123.200 367.331,115.243 368.988,102.500 369.001 L 96.167 369.008 99.833 371.179 C 160.497 407.097,239.264 407.112,300.105 371.218 L 303.710 369.091 296.105 368.908 C 284.681 368.633,275.636 366.651,266.123 362.338 C 263.747 361.260,263.438 361.198,262.667 361.641 " stroke="none" fill="#040404" fill-rule="evenodd"></path><path id="path1" d="M69.933 24.977 C 59.133 28.430,54.333 40.730,54.333 64.952 C 54.333 78.027,55.204 84.817,58.144 94.657 L 59.286 98.481 56.355 102.824 C 43.790 121.443,34.244 144.356,30.035 166.000 C 27.892 177.020,26.384 190.913,27.272 191.462 C 27.519 191.615,27.574 192.737,27.440 194.935 C 27.331 196.721,27.423 200.423,27.644 203.162 C 28.002 207.602,27.989 208.184,27.523 208.525 C 26.858 209.011,26.854 210.584,27.500 216.926 C 30.141 242.839,38.203 267.316,51.210 288.913 C 52.561 291.157,53.667 293.034,53.667 293.084 C 53.667 293.134,51.817 295.048,49.556 297.338 C 38.094 308.942,35.531 325.258,42.888 339.780 C 45.099 344.145,53.232 352.758,58.500 356.314 C 59.967 357.304,61.929 358.823,62.861 359.690 C 64.927 361.611,67.406 362.908,70.123 363.487 C 71.247 363.727,73.967 364.526,76.167 365.264 C 94.882 371.538,115.741 370.400,136.186 361.988 C 137.095 361.614,137.493 361.679,139.853 362.581 C 146.205 365.009,157.884 368.488,158.065 368.006 C 158.121 367.857,159.592 368.015,161.333 368.356 C 163.075 368.698,167.350 369.291,170.833 369.674 C 177.976 370.460,185.413 371.778,186.678 372.483 C 187.705 373.054,200.855 373.464,205.434 373.067 C 207.048 372.927,208.438 372.882,208.523 372.967 C 208.854 373.298,212.540 372.928,213.209 372.496 C 213.609 372.238,217.460 371.586,222.042 371.002 C 229.798 370.012,237.241 368.634,240.833 367.523 C 242.872 366.892,242.779 366.893,242.546 367.500 C 242.441 367.775,242.479 368.000,242.631 368.000 C 243.734 368.000,256.648 363.956,261.775 362.005 L 263.717 361.267 266.084 362.325 C 284.750 370.671,309.917 371.401,328.478 364.135 C 334.696 361.701,340.940 358.318,343.639 355.922 C 345.029 354.688,346.917 353.171,347.833 352.553 C 356.620 346.621,362.080 335.320,362.111 323.000 C 362.142 310.688,359.765 305.055,350.899 296.433 L 346.717 292.367 349.088 288.433 C 361.935 267.128,370.263 241.245,372.662 215.167 C 373.178 209.559,373.134 208.779,372.285 208.558 C 371.609 208.381,371.585 208.250,371.836 206.102 C 371.982 204.854,372.133 201.080,372.170 197.716 C 372.221 193.126,372.346 191.531,372.670 191.331 C 373.201 191.003,372.958 186.478,371.988 178.655 C 368.693 152.063,359.488 127.068,344.591 104.264 L 341.606 99.694 342.624 96.419 C 346.265 84.698,346.834 80.446,346.829 65.000 C 346.824 51.224,346.732 50.202,344.825 42.667 C 341.525 29.626,335.899 24.333,325.333 24.333 C 318.228 24.333,316.944 25.006,308.833 32.979 C 304.802 36.942,301.834 39.578,300.667 40.230 C 298.206 41.607,294.571 45.440,293.410 47.882 C 292.900 48.955,292.108 50.380,291.651 51.048 L 290.820 52.263 286.493 49.758 C 273.311 42.127,248.865 32.410,239.752 31.178 C 239.247 31.110,236.958 30.672,234.667 30.204 C 230.454 29.345,228.731 29.126,218.500 28.147 C 215.383 27.848,212.158 27.453,211.333 27.268 C 208.841 26.709,203.104 26.499,190.667 26.513 C 174.972 26.531,169.146 27.327,158.833 30.864 C 155.900 31.870,150.202 33.819,146.172 35.195 C 134.329 39.238,123.225 44.168,114.011 49.473 C 111.909 50.684,110.091 51.635,109.970 51.587 C 109.849 51.539,106.261 47.750,101.996 43.167 C 87.288 27.359,86.051 26.235,81.958 24.961 C 79.185 24.098,72.654 24.107,69.933 24.977 M79.889 46.250 C 100.147 68.011,110.013 78.562,115.188 84.000 C 117.629 86.564,119.891 88.993,124.350 93.833 C 125.194 94.750,129.324 99.172,133.526 103.659 C 137.728 108.147,142.367 113.119,143.833 114.708 C 145.300 116.298,146.695 117.540,146.934 117.469 C 147.180 117.397,147.271 117.498,147.143 117.704 C 146.864 118.157,151.326 122.710,151.776 122.432 C 151.956 122.321,151.998 122.401,151.869 122.610 C 151.728 122.837,155.426 127.047,161.067 133.083 C 166.255 138.635,173.328 146.211,176.785 149.920 C 180.492 153.897,183.227 156.573,183.452 156.444 C 183.662 156.325,183.722 156.349,183.586 156.499 C 183.248 156.872,183.991 157.712,184.423 157.445 C 184.634 157.314,184.669 157.394,184.511 157.649 C 184.199 158.153,188.610 162.741,189.110 162.432 C 189.289 162.321,189.351 162.368,189.248 162.536 C 188.952 163.014,189.900 164.101,190.363 163.815 C 190.623 163.655,190.684 163.703,190.532 163.948 C 190.307 164.313,200.137 175.167,200.693 175.167 C 201.179 175.167,213.959 161.204,213.763 160.887 C 213.654 160.709,213.717 160.658,213.904 160.774 C 214.092 160.890,214.882 160.276,215.662 159.409 C 216.441 158.542,218.002 156.858,219.130 155.667 C 220.259 154.475,223.204 151.325,225.674 148.667 C 233.136 140.638,234.709 138.964,237.753 135.810 C 239.360 134.146,240.560 132.659,240.420 132.506 C 240.281 132.352,240.337 132.324,240.546 132.443 C 240.939 132.668,242.903 130.384,242.741 129.892 C 242.691 129.741,242.784 129.700,242.949 129.802 C 243.113 129.903,246.529 126.444,250.540 122.114 C 254.551 117.784,258.208 113.849,258.667 113.370 C 264.922 106.821,268.353 102.968,268.179 102.686 C 268.053 102.484,268.168 102.419,268.457 102.530 C 269.000 102.738,269.794 101.588,269.405 101.157 C 269.274 101.012,269.328 100.985,269.525 101.097 C 270.055 101.398,274.476 96.833,274.156 96.316 C 273.997 96.060,274.032 95.981,274.246 96.113 C 274.572 96.314,280.264 90.452,290.540 79.333 C 293.784 75.824,307.446 61.182,307.648 60.999 C 307.750 60.906,308.734 59.856,309.835 58.665 C 310.935 57.474,314.171 54.025,317.025 51.000 C 319.878 47.975,322.904 44.751,323.748 43.836 C 325.569 41.862,325.405 41.762,326.505 45.507 C 332.850 67.108,327.597 93.897,312.650 116.167 C 303.598 129.654,280.291 153.540,250.483 179.880 C 243.509 186.042,233.420 194.837,230.660 197.160 C 228.922 198.622,227.017 200.272,226.426 200.826 L 225.352 201.833 227.400 204.000 C 230.766 207.560,234.035 211.054,236.305 213.515 C 237.481 214.790,240.268 217.783,242.498 220.167 C 244.728 222.550,247.877 225.925,249.496 227.667 C 251.114 229.408,252.559 230.798,252.707 230.754 C 253.688 230.465,251.451 232.910,243.563 240.749 L 234.591 249.666 231.546 247.253 C 222.043 239.726,209.686 229.771,208.750 228.889 C 208.154 228.328,207.667 227.967,207.667 228.086 C 207.667 228.205,207.290 227.927,206.831 227.467 C 206.371 227.007,205.842 226.725,205.656 226.840 C 205.469 226.955,205.358 226.869,205.408 226.648 C 205.459 226.427,204.422 225.363,203.105 224.283 L 200.711 222.320 194.939 227.021 C 191.764 229.606,189.204 231.859,189.250 232.027 C 189.296 232.196,189.191 232.296,189.016 232.250 C 188.738 232.177,182.159 237.272,176.202 242.175 C 175.083 243.096,172.494 245.157,170.450 246.754 L 166.733 249.658 157.676 240.602 C 150.408 233.335,148.673 231.432,148.893 230.969 C 149.043 230.652,150.479 229.015,152.084 227.332 C 153.688 225.648,154.903 224.112,154.782 223.917 C 154.662 223.723,154.718 223.659,154.906 223.775 C 155.095 223.892,156.050 223.128,157.029 222.077 C 158.008 221.026,161.001 217.842,163.681 215.000 C 174.540 203.485,175.966 201.861,175.605 201.426 C 175.414 201.196,175.121 201.092,174.954 201.195 C 174.787 201.298,174.691 201.240,174.742 201.065 C 174.889 200.553,171.725 197.925,171.288 198.195 C 171.062 198.334,170.986 198.293,171.107 198.097 C 171.322 197.749,170.314 196.744,166.829 193.834 C 164.167 191.611,163.812 191.301,156.589 184.882 C 153.155 181.830,150.193 179.333,150.006 179.333 C 149.819 179.333,149.667 179.204,149.667 179.046 C 149.667 178.887,147.232 176.600,144.257 173.962 C 141.281 171.325,137.763 168.141,136.438 166.888 C 134.874 165.409,133.878 164.697,133.598 164.858 C 133.361 164.995,133.284 164.978,133.427 164.821 C 133.686 164.536,129.100 159.667,128.572 159.667 C 128.419 159.667,128.401 159.840,128.532 160.052 C 128.680 160.292,128.623 160.346,128.379 160.195 C 128.165 160.062,128.063 159.835,128.153 159.689 C 128.243 159.543,126.499 157.641,124.278 155.462 C 122.057 153.283,117.157 148.397,113.389 144.604 C 109.621 140.811,106.413 137.784,106.261 137.878 C 106.108 137.973,106.025 137.912,106.075 137.743 C 106.125 137.575,104.508 135.576,102.481 133.302 C 88.208 117.286,81.476 106.474,76.554 91.661 C 71.463 76.339,70.888 57.892,75.088 44.583 C 75.976 41.768,75.593 41.635,79.889 46.250 M131.688 220.511 C 132.232 220.792,135.337 223.670,138.588 226.907 C 141.840 230.143,144.613 232.763,144.750 232.729 C 144.888 232.695,144.971 232.779,144.935 232.917 C 144.899 233.054,152.226 240.517,161.218 249.500 C 176.551 264.818,177.591 265.931,177.953 267.410 C 178.773 270.759,177.706 272.874,172.698 277.827 L 169.334 281.154 166.135 277.994 C 164.376 276.255,162.102 273.970,161.082 272.914 C 158.840 270.594,158.796 270.615,159.784 273.527 C 165.903 291.564,161.488 314.537,149.076 329.236 C 148.200 330.273,147.709 331.132,147.856 331.371 C 148.017 331.631,147.961 331.682,147.696 331.518 C 147.222 331.225,146.294 332.319,146.583 332.830 C 146.688 333.015,146.646 333.051,146.491 332.910 C 146.123 332.575,143.631 335.006,143.899 335.439 C 144.016 335.628,143.933 335.665,143.706 335.524 C 143.472 335.380,142.787 335.738,142.047 336.389 C 139.833 338.339,139.219 338.810,136.646 340.529 C 113.103 356.253,79.266 353.793,61.983 335.101 C 51.845 324.137,58.519 306.715,73.552 304.898 C 76.271 304.570,76.660 304.437,77.115 303.681 C 77.995 302.221,85.157 295.154,86.192 294.725 C 86.734 294.501,87.360 293.908,87.582 293.408 C 88.082 292.286,92.915 287.333,93.511 287.333 C 93.750 287.333,94.259 286.827,94.642 286.207 C 95.025 285.588,96.012 284.460,96.836 283.700 C 97.659 282.941,98.333 282.179,98.333 282.007 C 98.333 281.518,103.433 276.000,103.885 276.000 C 104.107 276.000,104.616 275.512,105.018 274.917 C 105.419 274.321,106.550 273.008,107.530 272.000 C 112.109 267.290,115.098 264.299,117.520 262.000 C 118.969 260.625,120.232 259.246,120.327 258.936 C 120.598 258.054,125.672 252.667,126.233 252.667 C 126.509 252.667,127.488 251.990,128.408 251.163 C 129.328 250.336,130.437 249.570,130.874 249.460 C 131.474 249.309,131.667 249.033,131.667 248.323 C 131.667 247.794,132.052 246.926,132.549 246.336 L 133.432 245.287 125.304 237.158 C 120.834 232.687,117.134 228.903,117.083 228.750 C 116.900 228.201,124.199 221.361,125.689 220.685 C 127.471 219.877,130.303 219.795,131.688 220.511 M275.596 220.663 C 277.042 221.320,284.333 228.113,284.333 228.804 C 284.333 229.005,283.883 229.594,283.332 230.114 C 282.781 230.634,282.417 231.200,282.523 231.371 C 282.629 231.543,282.566 231.642,282.381 231.592 C 281.901 231.460,279.625 233.663,279.856 234.037 C 279.963 234.209,279.899 234.309,279.715 234.258 C 279.234 234.127,276.959 236.330,277.190 236.704 C 277.296 236.876,277.232 236.975,277.048 236.925 C 276.567 236.793,274.292 238.997,274.523 239.370 C 274.629 239.542,274.566 239.642,274.381 239.592 C 273.901 239.460,271.625 241.663,271.856 242.037 C 271.963 242.209,271.899 242.309,271.715 242.258 C 271.201 242.118,268.967 244.343,269.216 244.747 C 269.337 244.943,269.294 245.015,269.119 244.907 C 268.156 244.312,267.879 245.337,268.756 246.252 C 269.257 246.775,269.667 247.375,269.667 247.586 C 269.667 247.796,270.347 248.436,271.177 249.007 C 272.008 249.579,273.078 250.636,273.555 251.357 C 274.032 252.077,274.670 252.667,274.972 252.667 C 275.506 252.667,277.715 254.789,279.983 257.479 C 280.591 258.200,281.970 259.361,283.048 260.057 C 284.471 260.977,285.411 261.940,286.484 263.578 C 287.296 264.819,288.865 266.808,289.970 268.000 C 291.075 269.192,291.989 270.317,291.999 270.500 C 292.010 270.683,292.841 271.331,293.847 271.939 C 295.084 272.688,296.249 273.819,297.454 275.439 C 299.590 278.313,302.189 280.724,304.970 282.413 C 306.956 283.619,309.644 286.975,309.873 288.534 C 309.995 289.371,313.993 293.371,316.045 294.710 C 317.079 295.385,318.401 296.629,318.983 297.475 C 319.588 298.355,320.197 298.917,320.406 298.789 C 320.631 298.649,320.674 298.719,320.518 298.971 C 320.359 299.228,321.076 300.216,322.467 301.656 C 323.677 302.910,324.667 304.141,324.667 304.393 C 324.667 304.721,325.022 304.818,325.917 304.734 C 340.970 303.330,350.133 324.834,339.019 335.482 C 338.471 336.006,338.117 336.600,338.232 336.801 C 338.347 337.002,338.320 337.058,338.174 336.926 C 338.028 336.794,336.766 337.637,335.371 338.799 C 312.943 357.478,274.684 354.144,254.479 331.751 C 253.445 330.606,252.442 329.766,252.248 329.886 C 252.042 330.013,251.996 329.943,252.136 329.716 C 252.271 329.498,251.872 328.712,251.221 327.915 C 243.015 317.849,237.989 301.932,238.829 288.667 C 239.203 282.764,240.860 274.131,242.045 271.917 C 242.533 271.004,242.092 271.226,240.826 272.530 C 240.187 273.188,239.751 273.867,239.857 274.038 C 239.963 274.210,239.899 274.309,239.715 274.258 C 239.201 274.118,236.967 276.343,237.216 276.747 C 237.337 276.943,237.293 277.014,237.117 276.906 C 236.942 276.797,235.794 277.674,234.566 278.854 C 231.812 281.502,232.468 281.652,228.270 277.417 C 223.018 272.119,221.854 268.835,224.158 265.814 C 225.572 263.962,268.349 221.317,269.500 220.614 C 270.844 219.792,273.728 219.815,275.596 220.663 M144.267 273.119 C 141.395 276.017,138.152 279.726,138.237 280.016 C 138.276 280.147,138.111 280.235,137.871 280.211 C 137.269 280.150,134.123 283.128,133.485 284.361 C 132.710 285.862,130.564 287.871,128.761 288.787 C 127.769 289.291,125.759 291.050,123.439 293.447 C 121.389 295.565,119.112 297.603,118.380 297.976 C 117.648 298.350,116.956 298.947,116.843 299.303 C 116.641 299.940,111.212 305.000,110.731 305.000 C 110.596 305.000,110.201 305.528,109.853 306.174 C 109.186 307.412,107.400 309.146,104.137 311.723 C 102.053 313.370,95.317 320.000,94.133 321.571 C 93.684 322.165,93.345 323.280,93.191 324.667 C 92.721 328.889,91.038 332.439,88.024 335.566 C 86.869 336.765,86.637 337.803,87.667 337.167 C 87.850 337.053,88.000 337.096,88.000 337.261 C 88.000 337.614,92.759 338.815,96.333 339.364 C 102.199 340.265,111.889 339.399,117.833 337.443 C 122.801 335.808,130.893 331.636,130.460 330.935 C 130.363 330.778,130.423 330.691,130.594 330.742 C 131.124 330.898,134.024 328.642,133.787 328.258 C 133.652 328.040,133.720 327.993,133.957 328.140 C 134.446 328.442,138.051 325.034,140.594 321.867 C 151.547 308.227,154.316 290.096,147.961 273.618 C 146.747 270.468,146.878 270.486,144.267 273.119 M253.346 273.686 C 240.992 305.722,264.154 339.663,298.373 339.666 C 303.970 339.667,312.372 338.331,314.405 337.117 C 314.537 337.039,313.887 336.193,312.963 335.237 C 310.617 332.814,308.769 328.907,308.262 325.297 C 307.979 323.281,307.655 322.237,307.101 321.558 C 306.679 321.040,306.333 320.267,306.333 319.840 C 306.333 319.262,305.916 318.822,304.697 318.116 C 302.573 316.885,295.667 310.409,295.667 309.649 C 295.667 309.303,295.021 308.685,294.091 308.140 C 292.422 307.162,290.451 305.431,286.295 301.292 C 284.891 299.894,283.051 298.275,282.207 297.694 C 281.362 297.113,280.332 296.155,279.919 295.565 C 279.505 294.976,277.945 293.370,276.452 291.997 C 274.959 290.623,273.636 289.234,273.511 288.909 C 273.386 288.584,272.480 287.724,271.497 286.998 C 270.515 286.272,269.448 285.232,269.126 284.687 C 268.803 284.141,268.156 283.532,267.686 283.333 C 266.410 282.792,259.568 276.074,258.383 274.198 C 257.563 272.899,255.251 271.000,254.490 271.000 C 254.431 271.000,253.916 272.209,253.346 273.686 " stroke="none" fill="#fbfbfb" fill-rule="evenodd"></path></g></svg>