<svg id="svg" version="1.1" xmlns="http://www.w3.org/2000/svg" xmlns:xlink="http://www.w3.org/1999/xlink" width="400" height="400" viewBox="0, 0, 400,400"><g id="svgg"><path id="path0" d="M130.370 130.860 C 125.302 133.927,125.681 127.816,125.651 207.093 C 125.622 286.290,125.271 280.516,130.292 283.459 L 132.922 285.000 154.617 285.000 C 178.150 285.000,178.467 284.958,181.195 281.491 C 182.743 279.523,182.951 275.175,181.618 272.625 C 179.407 268.393,177.730 267.570,164.594 264.274 C 157.771 262.561,151.695 260.715,151.094 260.171 C 149.400 258.638,149.400 155.736,151.094 154.205 C 151.695 153.661,157.391 151.930,163.750 150.359 C 179.881 146.374,182.500 144.642,182.500 137.960 C 182.500 129.355,182.560 129.374,155.510 129.378 L 132.813 129.381 130.370 130.860 M226.785 159.073 C 224.270 160.439,223.750 162.972,223.750 173.863 C 223.750 192.827,224.476 192.454,179.492 196.621 C 169.321 197.563,164.003 204.508,167.812 211.874 C 170.317 216.718,170.978 216.900,195.000 219.375 C 217.423 221.685,216.443 221.489,219.541 224.284 C 223.380 227.748,223.750 229.184,223.750 240.625 C 223.750 256.640,227.253 260.519,235.180 253.281 C 241.974 247.078,254.872 235.174,259.375 230.951 C 261.953 228.533,267.527 223.341,271.761 219.414 C 281.423 210.452,282.638 208.247,280.350 203.823 C 279.640 202.450,257.585 181.593,236.252 162.119 C 231.683 157.948,229.907 157.377,226.785 159.073 " stroke="none" fill="#000000" fill-rule="evenodd"></path></g></svg>