<svg id="svg" version="1.1" xmlns="http://www.w3.org/2000/svg" xmlns:xlink="http://www.w3.org/1999/xlink" width="400" height="280.5970149253731" viewBox="0, 0, 400,280.5970149253731"><g id="svgg"><path id="path0" d="M185.282 45.164 C 178.417 48.678,174.398 53.107,163.903 68.723 C 154.182 83.188,152.217 83.828,138.112 77.130 C 123.107 70.004,123.273 69.967,124.464 80.106 C 126.472 97.190,134.230 107.765,150.257 115.265 L 159.490 119.585 165.193 115.821 C 183.527 103.718,213.041 103.213,232.836 114.664 C 240.461 119.075,242.706 119.010,252.410 114.093 C 266.096 107.157,273.678 95.911,275.581 79.722 C 276.722 70.014,276.829 70.034,261.888 77.130 C 247.402 84.009,246.241 83.514,233.310 64.946 C 217.387 42.080,202.936 36.128,185.282 45.164 M182.836 116.321 C 169.693 119.521,164.946 124.531,166.224 133.852 C 166.947 139.127,166.600 141.433,164.784 143.439 C 160.690 147.964,164.278 155.444,172.445 159.412 C 176.741 161.500,179.738 164.158,180.727 166.759 C 182.965 172.647,184.310 173.089,200.000 173.089 C 215.665 173.089,217.037 172.642,219.252 166.815 C 220.228 164.247,223.423 161.456,228.099 159.087 C 236.398 154.881,239.407 148.071,235.080 143.290 C 233.405 141.439,233.071 138.998,233.783 133.804 C 235.789 119.168,208.960 109.961,182.836 116.321 M188.854 124.551 C 200.399 129.374,194.141 145.344,181.044 144.482 C 172.846 143.942,170.813 141.456,172.259 133.742 C 174.173 123.545,179.450 120.622,188.854 124.551 M221.575 123.315 C 227.035 125.411,230.498 139.054,226.567 142.985 C 223.594 145.958,212.360 145.196,208.955 141.791 C 200.298 133.134,210.031 118.885,221.575 123.315 M204.447 144.717 C 208.713 153.078,208.390 153.731,200.000 153.731 C 195.829 153.731,192.537 153.047,192.537 152.179 C 192.537 149.493,198.501 138.806,200.000 138.806 C 200.788 138.806,202.789 141.466,204.447 144.717 M129.637 159.353 C 141.396 175.675,164.893 189.236,176.651 186.486 C 188.570 183.698,189.109 182.893,181.088 179.854 C 177.124 178.352,167.500 174.139,159.701 170.492 C 151.903 166.845,141.287 161.929,136.110 159.568 L 126.698 155.273 129.637 159.353 M268.260 157.583 C 224.311 181.421,160.894 201.856,157.049 193.418 C 152.026 182.393,146.293 190.762,150.163 203.470 C 157.758 228.413,142.713 243.335,125.724 227.707 C 118.888 221.419,119.611 220.497,134.328 216.758 C 144.614 214.145,145.491 213.622,145.132 210.315 C 144.367 203.280,144.078 203.188,132.587 206.339 C 124.115 208.662,120.732 208.985,117.530 207.776 C 113.480 206.247,108.955 208.413,108.955 211.880 C 108.955 214.742,122.348 232.373,126.858 235.448 C 140.892 245.014,158.518 236.872,160.976 219.688 L 161.950 212.874 176.598 208.663 C 222.721 195.402,257.618 177.044,270.381 159.328 C 273.781 154.609,273.765 154.596,268.260 157.583 M243.092 193.109 C 241.812 195.918,240.013 196.818,234.541 197.387 C 230.730 197.784,223.943 199.746,219.458 201.747 L 211.303 205.386 224.682 209.175 L 238.060 212.965 239.029 219.734 C 241.485 236.873,259.128 245.001,273.142 235.448 C 277.652 232.373,291.045 214.742,291.045 211.880 C 291.045 208.413,286.520 206.247,282.470 207.776 C 279.268 208.985,275.885 208.662,267.413 206.339 C 255.922 203.188,255.633 203.280,254.868 210.315 C 254.509 213.622,255.386 214.145,265.672 216.758 C 280.389 220.497,281.112 221.419,274.276 227.707 C 257.287 243.335,242.242 228.413,249.837 203.470 C 253.631 191.010,247.994 182.350,243.092 193.109 " stroke="none" fill="#000000" fill-rule="evenodd"></path></g></svg>