<svg id="svg" xmlns="http://www.w3.org/2000/svg" xmlns:xlink="http://www.w3.org/1999/xlink" width="400" height="400" viewBox="0, 0, 400,400"><g id="svgg"><path id="path0" d="M118.192 33.671 C 73.980 38.818,39.219 73.786,33.635 118.730 C 32.523 127.679,32.514 272.212,33.624 281.270 C 39.148 326.315,74.303 361.303,119.141 366.379 C 128.594 367.449,271.406 367.449,280.859 366.379 C 325.768 361.295,361.295 325.768,366.379 280.859 C 367.449 271.406,367.449 128.594,366.379 119.141 C 361.297 74.249,325.751 38.703,280.859 33.621 C 272.345 32.657,126.516 32.702,118.192 33.671 M291.016 69.786 C 311.409 76.989,325.539 91.800,331.024 111.719 C 333.190 119.588,333.177 280.488,331.009 288.281 C 325.034 309.759,308.067 326.164,286.573 331.244 C 276.771 333.560,119.197 333.352,111.328 331.012 C 90.732 324.887,75.112 309.267,68.988 288.672 C 67.221 282.726,66.326 126.747,68.002 116.797 C 71.377 96.769,85.634 79.042,104.413 71.524 C 115.215 67.200,112.496 67.313,201.953 67.451 L 284.766 67.578 291.016 69.786 M281.245 92.090 C 259.484 99.225,262.669 131.579,285.310 133.377 C 308.103 135.187,317.638 106.249,298.206 94.235 C 294.270 91.801,285.505 90.693,281.245 92.090 M185.508 117.497 C 112.997 131.335,91.364 223.481,150.324 267.363 C 197.412 302.410,265.699 278.292,281.071 221.187 C 296.645 163.334,244.096 106.316,185.508 117.497 M207.422 151.140 C 254.371 156.376,264.496 223.908,221.427 244.549 C 172.363 268.063,127.056 205.651,164.310 165.867 C 173.384 156.177,190.257 149.210,201.563 150.485 C 202.637 150.606,205.273 150.901,207.422 151.140 " stroke="none" fill="#000000" fill-rule="evenodd"></path></g></svg>