<svg id="svg" xmlns="http://www.w3.org/2000/svg" xmlns:xlink="http://www.w3.org/1999/xlink" width="400" height="421.505376344086" viewBox="0, 0, 400,421.505376344086"><g id="svgg"><path id="path0" d="M167.742 0.294 C 111.578 6.108,71.568 25.889,41.040 62.935 C -8.664 123.250,-12.554 197.998,29.637 282.076 C 41.440 305.597,61.764 337.142,68.352 342.166 C 69.620 343.133,70.875 344.547,71.301 345.488 C 71.846 346.692,72.380 347.200,73.307 347.397 C 74.662 347.686,78.280 350.998,78.280 351.949 C 78.280 352.264,79.037 352.857,79.964 353.266 C 81.787 354.070,84.731 357.029,84.731 358.058 C 84.731 358.407,85.249 358.823,85.881 358.982 C 86.514 359.141,88.128 360.257,89.469 361.463 C 90.809 362.669,92.853 364.334,94.010 365.164 C 95.168 365.993,96.568 367.493,97.122 368.497 C 97.840 369.798,98.405 370.323,99.089 370.323 C 99.700 370.323,100.969 371.273,102.576 372.935 C 104.062 374.471,106.397 376.258,108.241 377.270 C 109.967 378.217,111.984 379.558,112.724 380.249 C 113.464 380.940,114.347 381.505,114.686 381.505 C 115.687 381.505,118.627 383.155,120.342 384.679 C 123.078 387.112,127.101 389.603,130.425 390.923 C 132.182 391.621,136.410 393.542,139.821 395.192 C 143.231 396.841,146.892 398.486,147.957 398.846 C 149.022 399.206,151.538 400.112,153.548 400.860 C 155.559 401.608,158.075 402.511,159.140 402.867 C 162.494 403.989,164.252 404.824,165.000 405.651 C 165.399 406.091,166.033 406.453,166.411 406.454 C 166.788 406.455,168.254 406.927,169.668 407.503 C 171.082 408.079,172.303 408.485,172.382 408.406 C 173.297 407.492,163.294 391.544,150.177 373.006 C 109.678 315.767,97.829 282.335,99.072 228.817 C 100.382 172.442,116.365 134.075,143.768 121.524 C 169.008 109.965,197.333 114.659,221.237 134.363 C 230.516 142.011,237.947 149.766,237.182 151.003 C 236.739 151.721,212.662 163.502,186.022 176.038 C 152.647 191.743,151.342 192.377,151.706 192.707 C 152.340 193.279,162.243 196.459,249.247 224.026 C 377.840 264.771,398.582 271.238,399.078 270.743 C 399.900 269.921,399.591 27.518,398.767 27.531 C 398.380 27.538,387.004 38.104,355.977 67.273 C 341.108 81.251,328.818 92.726,328.665 92.771 C 328.512 92.817,326.506 89.019,324.207 84.332 C 303.059 41.216,264.389 12.293,215.269 2.854 C 205.615 0.999,176.223 -0.585,167.742 0.294 " stroke="none" fill="#000000" fill-rule="evenodd"></path></g></svg>